<svg version="1.1" id="Layer_1" xmlns="http://www.w3.org/2000/svg" xmlns:xlink="http://www.w3.org/1999/xlink" x="0px" y="0px"
	 width="100%" viewBox="0 0 1024 308" enable-background="new 0 0 1024 308" xml:space="preserve">
<path fill="#FEFEFE" opacity="1.000000" stroke="none" 
	d="
M128.000000,309.000000 
	C85.673470,309.000000 43.346935,309.000000 1.015301,309.000000 
	C1.010200,206.356628 1.010200,103.713249 1.010200,1.034938 
	C342.255219,1.034938 683.510437,1.034938 1024.882812,1.034938 
	C1024.882812,103.571930 1024.882812,206.144043 1024.882812,309.000000 
	C732.641846,309.000000 440.283539,309.000000 147.475983,308.615143 
	C149.400497,301.710266 151.538422,295.091614 154.212891,288.697357 
	C157.013733,282.001038 158.694092,274.074677 168.350571,273.116730 
	C169.528305,272.845032 170.357437,272.450562 171.396912,272.059204 
	C171.607239,272.062347 172.013535,271.953125 172.409485,272.023438 
	C179.253967,269.760132 185.702484,267.426544 192.098602,265.083435 
	C192.046204,265.073914 192.053818,265.180176 192.371552,265.118103 
	C193.112885,264.992798 193.536453,264.929504 194.316223,264.841858 
	C201.419479,260.982483 208.166550,257.147491 215.205811,253.186523 
	C216.129715,252.532303 216.761414,252.004044 217.366699,251.331360 
	C217.340271,251.186951 217.332230,251.480453 217.623657,251.393829 
	C218.338699,250.890030 218.762344,250.472839 219.401886,250.018433 
	C219.920914,249.849380 220.075607,249.618225 220.343323,249.159729 
	C220.811539,248.712051 221.018311,248.392349 221.142670,248.067215 
	C221.060257,248.061783 221.076187,248.226196 221.350204,248.119827 
	C221.854218,247.702972 222.084213,247.392487 222.570190,246.995926 
	C223.243515,246.344894 223.660873,245.779938 224.389557,244.976746 
	C225.822052,241.409805 223.338821,240.934692 221.268982,241.081360 
	C217.779312,241.328613 214.331894,242.171692 210.538422,242.806595 
	C209.290054,242.976501 208.369949,243.103989 206.299988,243.390823 
	C215.141266,237.841309 222.906006,233.246490 230.358200,228.190964 
	C235.255798,224.868469 239.928680,221.127823 244.290741,217.125946 
	C249.179993,212.640381 253.925140,207.913971 258.151520,202.810791 
	C263.454865,196.407196 268.552368,189.708221 269.675140,179.658768 
	C261.896210,180.754807 254.598053,181.783096 247.299911,182.811386 
	C247.189667,182.357925 247.079437,181.904449 246.969193,181.450989 
	C248.468536,180.319305 249.920242,179.117020 251.475296,178.067917 
	C259.079681,172.937698 267.483978,168.678940 274.116974,162.511292 
	C280.772766,156.322464 288.278229,150.433014 292.377045,141.452896 
	C292.826996,140.869766 292.977295,140.446701 293.082886,140.031036 
	C293.038208,140.038452 293.068848,140.123703 293.319580,139.944397 
	C293.760803,139.187195 293.951324,138.609283 294.094177,138.036041 
	C294.046539,138.040741 294.074615,138.132294 294.330200,137.956909 
	C294.766785,137.197815 294.947784,136.614075 295.085327,136.035278 
	C295.041901,136.040237 295.069183,136.123276 295.311951,135.938202 
	C295.674194,135.176880 295.793671,134.600616 295.984619,133.824951 
	C296.056122,133.625519 296.061493,133.201828 296.379761,133.022461 
	C298.860779,126.574692 301.023529,120.306267 303.118713,114.036705 
	C303.051147,114.035568 303.068085,114.169685 303.305267,114.061150 
	C303.647797,113.647865 303.753174,113.343117 303.978271,112.699768 
	C304.908691,107.829346 303.984406,107.024940 299.960144,108.208176 
	C297.046387,109.064888 294.001587,109.759811 290.985077,109.906609 
	C287.704010,110.066284 284.388062,109.508850 281.441071,109.167793 
	C284.931396,107.432671 288.067993,105.793831 291.143036,104.136536 
	C291.081512,104.118095 291.088837,104.246338 291.386719,104.176437 
	C292.159027,103.757675 292.633514,103.408813 293.070435,103.039490 
	C293.032867,103.019028 293.053345,103.102081 293.334595,103.034042 
	C294.209045,102.501198 294.802216,102.036392 295.283173,101.487473 
	C295.170959,101.403351 295.428284,101.514977 295.699219,101.413635 
	C296.385498,100.928314 296.800873,100.544334 297.157043,100.144867 
	C297.097900,100.129395 297.117157,100.250160 297.374878,100.178619 
	C297.971497,99.747429 298.310455,99.387764 298.849426,98.742218 
	C304.664246,92.240120 312.664795,87.957443 314.933350,78.647888 
	C315.069641,77.906128 315.121948,77.477692 315.122253,77.046875 
	C315.070251,77.044510 315.091034,77.146515 315.377319,76.996544 
	C315.767181,76.234230 315.870728,75.621880 316.052979,74.834686 
	C316.131683,74.659836 316.082733,74.279480 316.396484,74.064262 
	C318.133972,65.902519 319.557709,57.955994 321.017395,49.794514 
	C321.053375,49.579556 321.043610,49.143776 321.370575,48.952328 
	C321.915558,47.045212 322.133606,45.329548 322.555847,43.242134 
	C323.211945,37.926945 323.663757,32.983509 324.454712,27.855682 
	C325.140686,25.402128 325.940002,23.077528 325.671234,20.883791 
	C325.499634,19.483177 323.520569,17.039988 322.740967,17.183142 
	C317.700806,18.108637 312.767761,19.617294 307.456604,21.098558 
	C304.402252,22.151979 301.630188,22.891142 298.989990,23.956985 
	C286.989746,28.801508 274.703979,33.088974 263.146545,38.835213 
	C252.852570,43.953255 243.187271,50.435665 233.607819,56.857826 
	C226.517319,61.611374 219.815781,67.011147 213.365829,72.612289 
	C211.525833,74.210152 211.170151,77.517281 209.955063,80.390381 
	C208.160889,89.154984 206.545471,97.569824 204.716003,106.022629 
	C204.501953,106.060600 204.074951,105.978706 204.046814,105.638382 
	C203.900330,104.861320 203.781967,104.424576 203.714432,103.525200 
	C203.517273,97.324135 203.240433,91.586746 203.032791,85.846855 
	C202.919205,82.707214 201.899445,82.186264 199.655731,84.553596 
	C199.609985,84.554962 199.518677,84.548416 199.348190,84.616104 
	C199.177704,84.683792 198.997864,85.003555 198.682709,85.119720 
	C188.002701,96.189636 178.901917,108.105476 171.014328,121.236084 
	C170.903229,121.442940 170.793732,121.899612 170.845551,121.908981 
	C170.897369,121.918350 170.875519,121.815323 170.587418,122.004349 
	C169.384918,124.035278 168.470505,125.877190 167.624298,127.772957 
	C167.692474,127.826813 167.723434,127.655823 167.466125,127.773422 
	C167.108414,128.251007 167.008026,128.610992 166.945709,128.970779 
	C166.983780,128.970596 166.949341,128.902664 166.685822,129.132965 
	C164.782791,133.118546 163.143280,136.873795 161.513657,140.685516 
	C161.523544,140.741959 161.627502,140.790268 161.346603,140.993973 
	C159.729584,145.794983 158.393463,150.392288 156.962143,155.402191 
	C156.568390,157.224030 155.958694,158.647278 156.021500,160.040207 
	C156.443039,169.388275 157.011765,178.729660 157.523911,188.073685 
	C157.777145,192.694000 158.011505,197.315338 158.182068,201.635895 
	C157.758072,200.854782 157.406418,200.373978 157.036697,199.930237 
	C157.018631,199.967285 157.099365,199.950607 157.034058,199.585571 
	C154.684906,194.088547 152.401062,188.956558 150.097855,183.873703 
	C150.078491,183.922852 150.176773,183.884109 150.047363,183.578156 
	C148.785889,183.262817 147.653793,183.253418 146.476379,183.360687 
	C146.431061,183.477325 146.559250,183.692276 146.302429,183.778534 
	C145.961960,184.218414 145.878311,184.572006 145.850464,184.931519 
	C145.906265,184.937439 145.883438,184.827545 145.595032,185.062637 
	C143.860931,194.196869 141.307693,203.084595 141.215881,211.997681 
	C141.058029,227.324982 142.434586,242.668106 143.090118,258.407196 
	C143.038055,262.202240 143.062988,265.594635 142.931122,269.288147 
	C142.546921,270.400879 142.319489,271.212555 141.943359,272.343750 
	C141.458466,273.752777 141.122299,274.842285 140.846008,275.937134 
	C140.905914,275.942474 140.882950,275.824402 140.589905,275.996582 
	C140.160843,277.054443 140.024826,277.940125 139.612305,279.021973 
	C138.940979,280.492340 138.546158,281.766541 138.034470,283.385742 
	C137.194794,285.791046 136.471985,287.851349 135.814148,289.921631 
	C135.879105,289.931671 135.857513,289.802002 135.567322,290.019836 
	C134.132614,293.476288 132.988113,296.714874 131.891937,299.953247 
	C131.940231,299.953033 131.916443,299.859406 131.642960,300.087952 
	C130.246323,303.210999 129.123169,306.105499 128.000000,309.000000 
M390.593689,184.901352 
	C388.253052,183.386703 385.912445,181.872055 383.868286,180.549255 
	C386.155365,178.708496 388.780609,177.155136 390.682556,174.971725 
	C401.120972,162.988754 393.401367,143.460739 376.500153,141.279724 
	C362.443848,139.465836 348.083435,140.008392 333.584473,139.497543 
	C333.584473,168.844818 333.584473,197.240372 333.584473,225.990723 
	C347.108826,225.990723 360.437988,226.596970 373.680878,225.789215 
	C383.392242,225.196854 390.707092,219.647217 394.078156,210.132019 
	C397.136169,201.500488 397.804565,192.959091 390.593689,184.901352 
M605.997070,193.500000 
	C605.997070,204.262634 605.997070,215.025284 605.997070,225.654175 
	C606.857605,225.865341 607.166199,226.007065 607.474915,226.007324 
	C619.634521,226.017700 631.794373,226.054688 643.953735,226.003113 
	C655.756348,225.953064 665.548401,218.829056 667.813538,207.615967 
	C668.857666,202.447281 668.729370,196.728561 667.708679,191.539322 
	C666.566040,185.730637 661.552368,182.616669 657.187744,181.053024 
	C660.090088,177.779984 663.994629,174.852783 665.906555,170.949539 
	C672.159058,158.184387 665.064880,143.628906 650.231873,141.464813 
	C635.768005,139.354538 620.899780,140.015228 605.996765,139.451355 
	C605.996765,157.886734 605.996765,175.193359 605.997070,193.500000 
M827.290466,248.005173 
	C837.177856,242.222305 841.894714,233.373978 842.016235,222.148972 
	C842.216370,203.655090 842.133362,185.158081 842.151306,166.662384 
	C842.152039,165.879379 841.967529,165.096207 841.877258,164.376511 
	C837.145569,164.376511 832.745911,164.376511 828.306519,164.376511 
	C828.031799,166.429886 827.799988,168.162766 827.531006,170.173355 
	C826.697266,169.803879 826.221252,169.709427 825.900757,169.434052 
	C815.936951,160.873337 801.906250,160.507751 791.738342,168.563217 
	C781.937195,176.328125 777.803040,190.891571 781.634399,204.156204 
	C785.566223,217.768478 793.988159,224.545670 808.126038,223.781937 
	C814.431274,223.441345 820.605835,220.681473 826.730286,219.048782 
	C827.641113,227.463089 824.639465,234.075409 818.135925,236.937958 
	C809.245178,240.851212 801.320740,238.300797 792.144104,228.087845 
	C788.932617,231.988037 785.806152,235.784958 782.785645,239.453186 
	C792.951416,252.158264 814.882080,254.501740 827.290466,248.005173 
M554.007629,155.501282 
	C554.007629,149.726456 554.007629,143.951630 554.007629,137.582535 
	C550.302551,138.083206 547.236145,138.675629 544.144409,138.874146 
	C539.354736,139.181686 538.058350,141.516403 538.107727,146.235062 
	C538.356812,170.058868 538.229492,193.886642 538.234070,217.713013 
	C538.234558,220.332321 538.234131,222.951645 538.234131,225.721008 
	C543.742798,225.721008 548.785583,225.721008 553.822144,225.721008 
	C554.958374,217.370911 550.731384,207.737656 560.826172,202.361893 
	C564.286194,207.642776 568.221191,212.813110 571.232666,218.474686 
	C574.387634,224.406097 578.385559,227.277206 585.315491,226.120209 
	C589.015747,225.502411 592.903992,226.010574 597.911926,226.010574 
	C588.882751,213.654724 580.908325,202.742233 573.015991,191.942093 
	C580.291565,183.107513 587.376160,174.504913 595.211060,164.991150 
	C590.221680,164.991150 586.711243,165.338318 583.296692,164.913971 
	C577.421692,164.183838 573.514648,166.261887 569.987061,171.101578 
	C565.394104,177.402832 559.830078,182.996246 554.007568,189.669388 
	C554.007568,177.780914 554.007568,167.140778 554.007629,155.501282 
M729.007935,226.845367 
	C729.502319,226.905792 730.006104,226.924164 730.489746,227.032623 
	C752.273987,231.918640 768.663086,221.305756 771.430359,201.692566 
	C774.553589,179.556305 761.791870,158.948334 732.911865,163.306732 
	C718.627380,165.462433 709.062195,177.492325 708.037476,192.583847 
	C706.950623,208.590378 714.651489,221.459824 729.007935,226.845367 
M509.011871,212.491852 
	C509.011871,216.923737 509.011871,221.355637 509.011871,225.762695 
	C514.317627,225.762695 519.057129,225.762695 523.992188,225.762695 
	C523.992188,212.378693 524.418579,199.240173 523.864319,186.143173 
	C523.374634,174.571167 516.528076,166.108444 506.307159,163.589752 
	C497.453217,161.407883 489.285675,163.450836 482.248535,169.483398 
	C479.727203,163.454147 478.488525,163.038422 468.244324,164.661987 
	C468.244324,185.018631 468.244324,205.393707 468.244324,225.673660 
	C473.409973,225.673660 478.291443,225.673660 483.866028,225.673660 
	C483.866028,213.355865 483.373566,201.366501 484.034149,189.441010 
	C484.496857,181.087372 489.896820,177.395142 498.250732,178.004730 
	C504.929932,178.492142 508.883667,183.203247 508.986664,191.021576 
	C509.076569,197.845032 509.009003,204.670547 509.011871,212.491852 
M868.355164,163.406311 
	C858.614929,166.156189 854.011597,171.930954 853.955505,181.470383 
	C853.894897,191.778580 857.831299,197.050583 868.171082,199.984741 
	C872.598755,201.241196 877.172668,201.974655 881.662354,203.022278 
	C885.043579,203.811295 886.805969,206.217926 886.633301,209.498520 
	C886.454529,212.893997 884.157959,214.579666 880.770142,215.112503 
	C874.690979,216.068634 870.138794,213.978165 866.672180,208.954086 
	C866.013794,207.999817 864.324951,206.870331 863.452393,207.102554 
	C859.543945,208.142761 855.758850,209.646072 851.694092,211.064270 
	C853.095337,217.037598 856.368286,220.999130 860.903870,223.969223 
	C867.810669,228.492035 875.637939,228.497971 883.417603,227.940598 
	C893.398804,227.225494 901.026672,219.309982 901.955261,209.198105 
	C902.858459,199.362488 897.643250,192.452347 886.987915,189.775345 
	C882.369324,188.615005 877.481628,188.362244 873.017883,186.822556 
	C870.990662,186.123306 868.411499,183.284622 868.429016,181.438675 
	C868.446838,179.555161 870.995667,177.009872 873.051086,175.974228 
	C877.320312,173.823090 881.732361,175.635956 885.246521,179.847595 
	C886.036621,180.794418 887.613892,182.008545 888.503174,181.787827 
	C892.255676,180.856400 895.885071,179.429016 899.689026,178.139114 
	C897.749939,170.439102 892.918152,165.763885 885.954712,164.201218 
	C880.555725,162.989655 874.786194,163.429642 868.355164,163.406311 
M681.102722,164.500031 
	C681.102722,184.889313 681.102722,205.278595 681.102722,225.720978 
	C686.743469,225.720978 691.786804,225.720978 696.740356,225.720978 
	C696.740356,196.364304 696.740356,167.333710 696.740356,137.524139 
	C692.511292,138.156525 688.640320,138.662704 684.798157,139.333893 
	C681.947876,139.831787 680.881470,141.464783 681.021484,144.547485 
	C681.308044,150.853226 681.104797,157.181229 681.102722,164.500031 
M423.981812,198.500000 
	C423.981812,178.429596 423.981812,158.359177 423.981812,137.654587 
	C420.405090,138.078857 417.347748,138.509613 414.276642,138.790085 
	C409.510712,139.225342 407.872223,141.344727 407.942230,146.484970 
	C408.281952,171.420990 408.096191,196.364182 408.096558,221.304825 
	C408.096588,222.747009 408.096527,224.189178 408.096527,225.701263 
	C413.653290,225.701263 418.693054,225.701263 423.981995,225.701263 
	C423.981995,216.749176 423.981995,208.124588 423.981812,198.500000 
M437.987671,192.500000 
	C437.987671,203.585114 437.987671,214.670212 437.987671,225.641357 
	C443.569946,225.641357 448.601868,225.641357 453.756744,225.641357 
	C453.756744,215.108719 453.756775,204.972443 453.756775,194.836151 
	C453.756775,184.775497 453.756744,174.714828 453.756744,164.677658 
	C448.138367,164.677658 443.240295,164.677658 437.987762,164.677658 
	C437.987762,173.905090 437.987762,182.702545 437.987671,192.500000 
M437.955688,154.364075 
	C439.138672,155.242554 440.218445,156.337616 441.523651,156.959579 
	C445.747345,158.972290 449.618286,158.273254 452.760986,154.778534 
	C455.885010,151.304520 455.873230,147.222076 454.067017,143.248779 
	C452.117920,138.961243 448.399567,137.321365 443.846832,138.045380 
	C438.142181,138.952545 433.314301,145.730087 437.955688,154.364075 
z"/>
<path fill="#4527E3" opacity="1.000000" stroke="none" 
	d="
M292.077393,141.612946 
	C288.278229,150.433014 280.772766,156.322464 274.116974,162.511292 
	C267.483978,168.678940 259.079681,172.937698 251.475296,178.067917 
	C249.920242,179.117020 248.468536,180.319305 246.969193,181.450989 
	C247.079437,181.904449 247.189667,182.357925 247.299911,182.811386 
	C254.598053,181.783096 261.896210,180.754807 269.675140,179.658768 
	C268.552368,189.708221 263.454865,196.407196 258.151520,202.810791 
	C253.925140,207.913971 249.179993,212.640381 244.290741,217.125946 
	C239.928680,221.127823 235.255798,224.868469 230.358200,228.190964 
	C222.906006,233.246490 215.141266,237.841309 206.299988,243.390823 
	C208.369949,243.103989 209.290054,242.976501 210.769653,243.100861 
	C213.091309,243.239380 214.910156,242.797592 216.602325,243.089676 
	C219.140961,243.527863 221.590698,244.480896 224.078247,245.214996 
	C223.660873,245.779938 223.243515,246.344894 222.282227,247.085114 
	C221.517593,247.582321 221.296890,247.904266 221.076187,248.226196 
	C221.076187,248.226196 221.060257,248.061783 220.860626,248.169464 
	C220.467941,248.614014 220.274902,248.950867 220.081879,249.287720 
	C220.075607,249.618225 219.920914,249.849380 219.054276,250.025452 
	C218.104599,250.539932 217.718414,251.010193 217.332230,251.480453 
	C217.332230,251.480453 217.340271,251.186951 216.995087,251.209686 
	C216.071136,251.925766 215.492386,252.619125 214.913620,253.312485 
	C208.166550,257.147491 201.419479,260.982483 194.156830,264.621338 
	C193.112091,264.676880 192.582962,264.928528 192.053818,265.180176 
	C192.053818,265.180176 192.046204,265.073914 191.696518,265.049988 
	C184.902390,267.335083 178.457962,269.644104 172.013535,271.953125 
	C172.013535,271.953125 171.607239,272.062347 171.040131,272.034790 
	C169.649353,272.336151 168.825668,272.665039 168.001984,272.993958 
	C158.694092,274.074677 157.013733,282.001038 154.212891,288.697357 
	C151.538422,295.091614 149.400497,301.710266 147.013351,308.615143 
	C141.645065,309.000000 136.290146,309.000000 130.510468,308.620178 
	C130.695953,305.446716 131.306198,302.653076 131.916443,299.859406 
	C131.916443,299.859406 131.940231,299.953033 132.237213,299.839478 
	C133.641968,296.417938 134.749741,293.109955 135.857513,289.802002 
	C135.857513,289.802002 135.879105,289.931671 136.166382,289.834442 
	C137.019562,287.505066 137.585449,285.272888 138.151337,283.040741 
	C138.546158,281.766541 138.940979,280.492340 139.830841,279.202026 
	C140.511566,278.065399 140.697250,276.944885 140.882935,275.824402 
	C140.882950,275.824402 140.905914,275.942474 141.175293,275.852417 
	C141.660477,274.516327 141.876266,273.270294 142.092041,272.024231 
	C142.319489,271.212555 142.546921,270.400879 143.319656,269.204285 
	C144.233704,265.215668 144.602448,261.611969 144.967346,257.585663 
	C144.317429,249.912949 143.199142,242.667969 143.120178,235.411682 
	C142.936188,218.505798 141.821198,201.513580 145.883438,184.827545 
	C145.883438,184.827545 145.906265,184.937439 146.122589,184.833710 
	C146.412354,184.384094 146.485794,184.038177 146.559250,183.692276 
	C146.559250,183.692276 146.431061,183.477325 146.892151,183.607361 
	C148.294403,183.786301 149.235596,183.835205 150.176773,183.884109 
	C150.176773,183.884109 150.078491,183.922852 150.056458,184.270447 
	C151.473816,188.942123 152.806534,193.306961 154.431839,197.559998 
	C154.810883,198.551819 156.183762,199.163849 157.099365,199.950607 
	C157.099365,199.950607 157.018631,199.967285 157.054962,200.258194 
	C157.478989,201.011475 157.866699,201.473846 158.254395,201.936218 
	C158.011505,197.315338 157.777145,192.694000 157.523911,188.073685 
	C157.011765,178.729660 156.443039,169.388275 156.021500,160.040207 
	C155.958694,158.647278 156.568390,157.224030 157.325439,155.329041 
	C159.065109,150.158936 160.346313,145.474594 161.627502,140.790268 
	C161.627502,140.790268 161.523544,140.741959 161.883636,140.679245 
	C163.812271,136.711914 165.380814,132.807281 166.949341,128.902664 
	C166.949341,128.902664 166.983780,128.970596 167.204071,128.846878 
	C167.524048,128.367386 167.623749,128.011597 167.723434,127.655823 
	C167.723434,127.655823 167.692474,127.826813 168.006226,127.757454 
	C169.171814,125.730507 170.023666,123.772919 170.875519,121.815323 
	C170.875519,121.815323 170.897369,121.918350 171.041229,121.880180 
	C171.294922,121.774063 171.404755,121.706116 171.514587,121.638168 
	C171.384872,121.435188 171.255142,121.232201 171.125427,121.029221 
	C178.901917,108.105476 188.002701,96.189636 198.810089,85.288467 
	C199.341324,85.076843 199.429993,84.812630 199.518677,84.548416 
	C199.518677,84.548416 199.609985,84.554962 200.054337,84.768280 
	C200.993393,86.408707 201.859100,87.821388 201.915237,89.265533 
	C202.105804,94.168533 202.010269,99.082657 202.060120,104.320328 
	C202.755814,105.091652 203.415375,105.535179 204.074951,105.978706 
	C204.074951,105.978706 204.501953,106.060600 205.053162,105.863342 
	C206.726151,101.104393 208.066055,96.582275 208.902969,91.968903 
	C209.614365,88.047432 209.745789,84.020744 210.133820,80.040611 
	C211.170151,77.517281 211.525833,74.210152 213.365829,72.612289 
	C219.815781,67.011147 226.517319,61.611374 233.607819,56.857826 
	C243.187271,50.435665 252.852570,43.953255 263.146545,38.835213 
	C274.703979,33.088974 286.989746,28.801508 298.989990,23.956985 
	C301.630188,22.891142 304.402252,22.151979 307.891907,21.125443 
	C313.689087,20.197895 318.707977,19.407288 324.403320,18.510120 
	C323.860260,22.255657 323.443329,25.131170 323.012787,28.432369 
	C322.335052,33.239780 321.670959,37.621502 321.002472,42.448414 
	C321.013245,44.976994 321.028442,47.060383 321.043610,49.143776 
	C321.043610,49.143776 321.053375,49.579556 320.726685,50.046989 
	C318.960907,58.436108 317.521820,66.357796 316.082733,74.279480 
	C316.082733,74.279480 316.131683,74.659836 315.791809,75.006760 
	C315.331604,75.951294 315.211334,76.548904 315.091064,77.146515 
	C315.091034,77.146515 315.070251,77.044510 314.865692,77.141212 
	C314.723877,77.812340 314.786621,78.386772 314.849396,78.961197 
	C312.664795,87.957443 304.664246,92.240120 298.576965,98.783966 
	C297.775360,99.491112 297.446259,99.870628 297.117157,100.250153 
	C297.117157,100.250160 297.097900,100.129395 296.806030,100.117691 
	C296.152191,100.575653 295.790222,101.045311 295.428284,101.514977 
	C295.428284,101.514977 295.170959,101.403351 294.942200,101.331436 
	C294.160065,101.873711 293.606720,102.487900 293.053345,103.102081 
	C293.053345,103.102081 293.032867,103.019028 292.742920,103.049095 
	C291.998260,103.468224 291.543549,103.857277 291.088837,104.246338 
	C291.088837,104.246338 291.081512,104.118095 290.745605,104.085739 
	C287.302216,105.790291 284.194763,107.527191 281.087311,109.264084 
	C284.388062,109.508850 287.704010,110.066284 290.985077,109.906609 
	C294.001587,109.759811 297.046387,109.064888 299.960144,108.208176 
	C303.984406,107.024940 304.908691,107.829346 303.777466,112.831116 
	C303.241302,113.552071 303.111694,113.841614 303.068085,114.169685 
	C303.068085,114.169685 303.051147,114.035568 302.796021,114.194199 
	C300.381073,120.635834 298.221283,126.918831 296.061493,133.201828 
	C296.061493,133.201828 296.056122,133.625519 295.738159,133.999512 
	C295.303192,134.956741 295.186188,135.540009 295.069153,136.123276 
	C295.069183,136.123276 295.041901,136.040237 294.798645,136.180328 
	C294.395111,136.924362 294.234863,137.528336 294.074615,138.132294 
	C294.074615,138.132294 294.046539,138.040741 293.806091,138.179306 
	C293.400055,138.919815 293.234436,139.521759 293.068848,140.123703 
	C293.068848,140.123703 293.038208,140.038452 292.792114,140.201370 
	C292.389771,140.780502 292.233582,141.196732 292.077393,141.612946 
M252.060043,88.054268 
	C252.060043,88.054268 252.210052,88.076942 251.661133,88.253685 
	C251.466675,88.572693 251.272217,88.891701 251.064590,89.062439 
	C251.064590,89.062439 251.212708,89.077194 250.658768,89.262779 
	C250.477661,89.594460 250.296570,89.926147 250.068954,90.090706 
	C250.068954,90.090706 250.241928,90.077461 249.649857,90.318207 
	C249.463974,90.692032 249.278076,91.065849 248.894989,92.052872 
	C245.136444,96.314560 241.193832,100.429581 237.657135,104.868042 
	C229.964966,114.521561 222.231339,124.159866 214.988647,134.148087 
	C209.183716,142.153534 203.959091,150.591309 198.696091,158.974792 
	C193.928894,166.568512 189.457993,174.348221 184.346176,182.533707 
	C184.255020,183.228516 184.163849,183.923309 184.179733,184.828094 
	C184.179733,184.828094 184.011566,184.993240 183.524719,185.253448 
	C183.396286,185.592072 183.267868,185.930695 183.126801,186.075623 
	C183.126801,186.075623 183.318375,186.106873 182.662827,186.331329 
	C182.501526,186.966370 182.340210,187.601425 182.134338,188.084763 
	C182.134338,188.084763 182.292404,188.088959 181.651199,188.326691 
	C181.481949,188.954514 181.312683,189.582321 181.103699,190.066589 
	C181.103699,190.066589 181.252640,190.064682 180.629684,190.324707 
	C180.461395,190.947891 180.293121,191.571075 180.088684,192.057571 
	C180.088684,192.057571 180.230026,192.053879 179.613251,192.321991 
	C179.450012,192.944931 179.286758,193.567871 179.088394,194.057938 
	C179.088394,194.057938 179.225815,194.055267 178.609909,194.313217 
	C178.440155,194.931763 178.270386,195.550293 178.068970,196.047714 
	C178.068970,196.047714 178.194016,196.041824 177.594299,196.314011 
	C177.425278,196.927078 177.256271,197.540146 177.058517,198.041779 
	C177.058517,198.041779 177.173386,198.035156 176.575989,198.317535 
	C176.419403,198.936386 176.262817,199.555237 176.074142,200.049515 
	C176.074142,200.049515 176.202713,200.044769 175.598038,200.319305 
	C175.433731,200.937286 175.269424,201.555283 175.073105,202.049164 
	C175.073105,202.049164 175.201157,202.044220 174.589951,202.319092 
	C174.437088,202.944992 174.284210,203.570908 174.095917,204.060013 
	C174.095917,204.060013 174.237213,204.059311 173.615784,204.322220 
	C173.455124,204.948639 173.294479,205.575058 173.097336,206.060852 
	C173.097336,206.060852 173.242584,206.059540 172.617020,206.325714 
	C172.463608,206.957245 172.310181,207.588776 172.116501,208.071671 
	C172.116501,208.071671 172.270493,208.073318 171.633759,208.328918 
	C171.482666,208.964294 171.331558,209.599670 171.141571,210.080444 
	C171.141571,210.080444 171.300629,210.091217 170.649139,210.332596 
	C170.506180,210.973343 170.363220,211.614090 170.176880,212.099823 
	C170.176880,212.099823 170.336792,212.118210 169.681122,212.330978 
	C169.472641,212.952103 169.264145,213.573242 169.057083,214.622314 
	C169.057083,214.622314 168.908676,215.023682 168.466049,215.249054 
	C168.235962,215.501419 168.092316,215.795944 167.992859,216.860092 
	C163.809021,226.258224 159.343048,235.544266 155.548035,245.096863 
	C153.302170,250.750000 151.511826,256.775757 154.263687,263.300323 
	C154.342743,263.045105 154.421783,262.789917 154.699265,262.645569 
	C154.699265,262.645569 154.524582,262.791046 155.279495,262.584686 
	C155.495361,261.347290 155.711212,260.109894 155.951172,258.962219 
	C155.951172,258.962219 155.858383,258.967377 156.444992,258.673370 
	C156.590424,258.055176 156.735870,257.437012 156.914948,256.943390 
	C156.914948,256.943390 156.785904,256.945618 157.399063,256.671265 
	C157.550491,256.045441 157.701904,255.419632 157.891479,254.929932 
	C157.891479,254.929932 157.750107,254.928375 158.371429,254.674255 
	C158.540161,254.054382 158.708893,253.434509 158.911667,252.940567 
	C158.911667,252.940567 158.781219,252.941895 159.390152,252.677963 
	C159.558594,252.063110 159.727051,251.448257 159.926407,250.948013 
	C159.926407,250.948013 159.807755,250.951233 160.413223,250.683777 
	C160.573730,250.067032 160.734238,249.450287 160.926392,248.948715 
	C160.926392,248.948715 160.807022,248.952805 161.407639,248.678040 
	C161.570236,248.063431 161.732849,247.448837 161.930862,246.952560 
	C161.930862,246.952560 161.807724,246.962357 162.430649,246.639954 
	C162.588470,245.979691 162.746292,245.319427 162.859634,244.294617 
	C162.859634,244.294617 163.057312,243.985092 163.517258,243.711838 
	C163.611130,243.374817 163.704987,243.037781 163.796310,242.873520 
	C163.796310,242.873520 163.637695,242.805023 164.283295,242.755478 
	C164.528915,241.840820 164.774521,240.926147 165.211670,239.306549 
	C166.869919,235.433289 168.265182,231.420120 170.236938,227.713654 
	C175.632980,217.570389 181.212387,207.522980 186.828827,197.499054 
	C194.473740,183.854813 201.868774,170.052505 210.025986,156.718719 
	C217.586319,144.360626 225.762466,132.355576 234.138123,120.528389 
	C239.557526,112.875671 245.778030,105.785309 251.721634,98.510025 
	C259.132874,89.438324 266.666718,80.466713 274.062012,71.382187 
	C276.014008,68.984299 277.650848,66.329895 279.432434,63.793293 
	C278.964996,63.420227 278.497528,63.047165 278.030090,62.674099 
	C273.044281,67.456001 268.058472,72.237907 262.398376,77.087547 
	C261.949097,77.758377 261.499817,78.429207 261.028290,79.026077 
	C261.028290,79.026077 261.105499,79.027931 260.610718,79.255089 
	C260.420776,79.557007 260.230865,79.858925 259.933441,80.604324 
	C259.767120,80.897423 259.515472,81.046410 258.478027,81.084007 
	C258.011749,81.770439 257.545441,82.456871 257.049683,83.046394 
	C257.049683,83.046394 257.150574,83.037407 256.634644,83.265083 
	C256.441162,83.578789 256.247711,83.892487 255.859833,84.758293 
	C255.001602,85.531418 254.143372,86.304543 252.718933,87.255684 
	C252.500061,87.572441 252.281189,87.889198 252.060043,88.054268 
z"/>
<path fill="#2A11E0" opacity="1.000000" stroke="none" 
	d="
M131.642960,300.087952 
	C131.306198,302.653076 130.695953,305.446716 130.042847,308.620178 
	C129.555557,309.000000 129.111099,309.000000 128.333328,309.000000 
	C129.123169,306.105499 130.246323,303.210999 131.642960,300.087952 
z"/>
<path fill="#040406" opacity="1.000000" stroke="none" 
	d="
M390.861481,185.148224 
	C397.804565,192.959091 397.136169,201.500488 394.078156,210.132019 
	C390.707092,219.647217 383.392242,225.196854 373.680878,225.789215 
	C360.437988,226.596970 347.108826,225.990723 333.584473,225.990723 
	C333.584473,197.240372 333.584473,168.844818 333.584473,139.497543 
	C348.083435,140.008392 362.443848,139.465836 376.500153,141.279724 
	C393.401367,143.460739 401.120972,162.988754 390.682556,174.971725 
	C388.780609,177.155136 386.155365,178.708496 383.868286,180.549255 
	C385.912445,181.872055 388.253052,183.386703 390.861481,185.148224 
M374.397552,208.102325 
	C378.345093,205.335770 379.925201,201.419830 378.826202,196.880844 
	C377.741943,192.402878 374.174622,190.102020 369.773987,189.697861 
	C364.522247,189.215515 359.196381,188.878113 353.962433,189.272263 
	C352.419312,189.388474 350.218872,192.010773 349.831360,193.810135 
	C349.110748,197.155945 349.517365,200.741425 349.424652,204.226349 
	C349.317139,208.267426 351.451416,210.801300 355.281036,210.636765 
	C361.483734,210.370300 367.654083,209.351547 374.397552,208.102325 
M363.233673,155.251312 
	C360.741028,155.240799 358.231995,155.046875 355.760101,155.268127 
	C352.940857,155.520508 349.748199,155.897263 349.722321,159.728241 
	C349.687714,164.853195 347.682312,170.434097 352.462677,174.666794 
	C352.879547,175.035919 353.734375,174.997421 354.386353,175.000000 
	C358.873474,175.017807 363.383392,175.276581 367.842377,174.917282 
	C373.617706,174.451874 377.994507,169.737579 378.002441,164.593521 
	C378.010498,159.362473 375.113617,156.801559 368.079041,155.822937 
	C366.764191,155.640030 365.448639,155.461838 363.233673,155.251312 
z"/>
<path fill="#010103" opacity="1.000000" stroke="none" 
	d="
M605.996948,193.000000 
	C605.996765,175.193359 605.996765,157.886734 605.996765,139.451355 
	C620.899780,140.015228 635.768005,139.354538 650.231873,141.464813 
	C665.064880,143.628906 672.159058,158.184387 665.906555,170.949539 
	C663.994629,174.852783 660.090088,177.779984 657.187744,181.053024 
	C661.552368,182.616669 666.566040,185.730637 667.708679,191.539322 
	C668.729370,196.728561 668.857666,202.447281 667.813538,207.615967 
	C665.548401,218.829056 655.756348,225.953064 643.953735,226.003113 
	C631.794373,226.054688 619.634521,226.017700 607.474915,226.007324 
	C607.166199,226.007065 606.857605,225.865341 605.997070,225.654175 
	C605.997070,215.025284 605.997070,204.262634 605.996948,193.000000 
M633.553711,210.998627 
	C636.843323,210.654907 640.175110,210.532532 643.412415,209.914627 
	C648.046204,209.030167 651.639160,204.731232 652.024597,200.407669 
	C652.469971,195.412491 650.135254,191.406006 645.729431,190.509338 
	C639.350403,189.211075 632.634277,189.074783 626.106323,189.382935 
	C624.642822,189.452026 622.034912,193.562576 622.260986,195.550140 
	C622.817810,200.446136 618.648376,206.895142 625.817383,209.983688 
	C627.857910,210.862793 630.353821,210.685165 633.553711,210.998627 
M622.266357,158.345490 
	C622.178894,161.980362 621.903870,165.623154 622.057312,169.247833 
	C622.206848,172.779343 623.850708,175.146164 627.889160,175.047073 
	C631.863342,174.949539 635.850220,175.176636 639.815674,174.964828 
	C645.939453,174.637756 650.889282,169.844940 650.954224,164.473206 
	C651.011780,159.712875 647.507507,156.611465 640.919800,155.852951 
	C637.640259,155.475342 634.287598,155.030518 631.035095,155.334122 
	C628.256409,155.593506 625.573486,156.878433 622.266357,158.345490 
z"/>
<path fill="#020304" opacity="1.000000" stroke="none" 
	d="
M826.925415,248.117218 
	C814.882080,254.501740 792.951416,252.158264 782.785645,239.453186 
	C785.806152,235.784958 788.932617,231.988037 792.144104,228.087845 
	C801.320740,238.300797 809.245178,240.851212 818.135925,236.937958 
	C824.639465,234.075409 827.641113,227.463089 826.730286,219.048782 
	C820.605835,220.681473 814.431274,223.441345 808.126038,223.781937 
	C793.988159,224.545670 785.566223,217.768478 781.634399,204.156204 
	C777.803040,190.891571 781.937195,176.328125 791.738342,168.563217 
	C801.906250,160.507751 815.936951,160.873337 825.900757,169.434052 
	C826.221252,169.709427 826.697266,169.803879 827.531006,170.173355 
	C827.799988,168.162766 828.031799,166.429886 828.306519,164.376511 
	C832.745911,164.376511 837.145569,164.376511 841.877258,164.376511 
	C841.967529,165.096207 842.152039,165.879379 842.151306,166.662384 
	C842.133362,185.158081 842.216370,203.655090 842.016235,222.148972 
	C841.894714,233.373978 837.177856,242.222305 826.925415,248.117218 
M811.349609,209.994110 
	C828.878296,207.971741 829.966431,191.280075 823.862244,182.457077 
	C820.141479,177.079102 812.890564,175.293259 806.542969,177.839020 
	C799.370483,180.715607 795.372681,188.160263 796.625488,196.306915 
	C798.053223,205.590607 801.637939,209.125076 811.349609,209.994110 
z"/>
<path fill="#040405" opacity="1.000000" stroke="none" 
	d="
M554.007568,156.000961 
	C554.007568,167.140778 554.007568,177.780914 554.007568,189.669388 
	C559.830078,182.996246 565.394104,177.402832 569.987061,171.101578 
	C573.514648,166.261887 577.421692,164.183838 583.296692,164.913971 
	C586.711243,165.338318 590.221680,164.991150 595.211060,164.991150 
	C587.376160,174.504913 580.291565,183.107513 573.015991,191.942093 
	C580.908325,202.742233 588.882751,213.654724 597.911926,226.010574 
	C592.903992,226.010574 589.015747,225.502411 585.315491,226.120209 
	C578.385559,227.277206 574.387634,224.406097 571.232666,218.474686 
	C568.221191,212.813110 564.286194,207.642776 560.826172,202.361893 
	C550.731384,207.737656 554.958374,217.370911 553.822144,225.721008 
	C548.785583,225.721008 543.742798,225.721008 538.234131,225.721008 
	C538.234131,222.951645 538.234558,220.332321 538.234070,217.713013 
	C538.229492,193.886642 538.356812,170.058868 538.107727,146.235062 
	C538.058350,141.516403 539.354736,139.181686 544.144409,138.874146 
	C547.236145,138.675629 550.302551,138.083206 554.007629,137.582535 
	C554.007629,143.951630 554.007629,149.726456 554.007568,156.000961 
z"/>
<path fill="#020204" opacity="1.000000" stroke="none" 
	d="
M728.653564,226.645111 
	C714.651489,221.459824 706.950623,208.590378 708.037476,192.583847 
	C709.062195,177.492325 718.627380,165.462433 732.911865,163.306732 
	C761.791870,158.948334 774.553589,179.556305 771.430359,201.692566 
	C768.663086,221.305756 752.273987,231.918640 730.489746,227.032623 
	C730.006104,226.924164 729.502319,226.905792 728.653564,226.645111 
M737.883179,213.941025 
	C745.120850,214.246384 751.032043,211.857986 754.087341,204.947052 
	C757.516846,197.189682 757.194275,189.409073 751.917480,182.552673 
	C746.014771,174.882843 734.038391,174.925491 728.186890,182.409531 
	C720.575012,192.145126 723.015015,211.161804 737.883179,213.941025 
z"/>
<path fill="#010203" opacity="1.000000" stroke="none" 
	d="
M509.011444,211.993500 
	C509.009003,204.670547 509.076569,197.845032 508.986664,191.021576 
	C508.883667,183.203247 504.929932,178.492142 498.250732,178.004730 
	C489.896820,177.395142 484.496857,181.087372 484.034149,189.441010 
	C483.373566,201.366501 483.866028,213.355865 483.866028,225.673660 
	C478.291443,225.673660 473.409973,225.673660 468.244324,225.673660 
	C468.244324,205.393707 468.244324,185.018631 468.244324,164.661987 
	C478.488525,163.038422 479.727203,163.454147 482.248535,169.483398 
	C489.285675,163.450836 497.453217,161.407883 506.307159,163.589752 
	C516.528076,166.108444 523.374634,174.571167 523.864319,186.143173 
	C524.418579,199.240173 523.992188,212.378693 523.992188,225.762695 
	C519.057129,225.762695 514.317627,225.762695 509.011871,225.762695 
	C509.011871,221.355637 509.011871,216.923737 509.011444,211.993500 
z"/>
<path fill="#030305" opacity="1.000000" stroke="none" 
	d="
M868.768250,163.270905 
	C874.786194,163.429642 880.555725,162.989655 885.954712,164.201218 
	C892.918152,165.763885 897.749939,170.439102 899.689026,178.139114 
	C895.885071,179.429016 892.255676,180.856400 888.503174,181.787827 
	C887.613892,182.008545 886.036621,180.794418 885.246521,179.847595 
	C881.732361,175.635956 877.320312,173.823090 873.051086,175.974228 
	C870.995667,177.009872 868.446838,179.555161 868.429016,181.438675 
	C868.411499,183.284622 870.990662,186.123306 873.017883,186.822556 
	C877.481628,188.362244 882.369324,188.615005 886.987915,189.775345 
	C897.643250,192.452347 902.858459,199.362488 901.955261,209.198105 
	C901.026672,219.309982 893.398804,227.225494 883.417603,227.940598 
	C875.637939,228.497971 867.810669,228.492035 860.903870,223.969223 
	C856.368286,220.999130 853.095337,217.037598 851.694092,211.064270 
	C855.758850,209.646072 859.543945,208.142761 863.452393,207.102554 
	C864.324951,206.870331 866.013794,207.999817 866.672180,208.954086 
	C870.138794,213.978165 874.690979,216.068634 880.770142,215.112503 
	C884.157959,214.579666 886.454529,212.893997 886.633301,209.498520 
	C886.805969,206.217926 885.043579,203.811295 881.662354,203.022278 
	C877.172668,201.974655 872.598755,201.241196 868.171082,199.984741 
	C857.831299,197.050583 853.894897,191.778580 853.955505,181.470383 
	C854.011597,171.930954 858.614929,166.156189 868.768250,163.270905 
z"/>
<path fill="#030406" opacity="1.000000" stroke="none" 
	d="
M681.103027,164.000046 
	C681.104797,157.181229 681.308044,150.853226 681.021484,144.547485 
	C680.881470,141.464783 681.947876,139.831787 684.798157,139.333893 
	C688.640320,138.662704 692.511292,138.156525 696.740356,137.524139 
	C696.740356,167.333710 696.740356,196.364304 696.740356,225.720978 
	C691.786804,225.720978 686.743469,225.720978 681.102722,225.720978 
	C681.102722,205.278595 681.102722,184.889313 681.103027,164.000046 
z"/>
<path fill="#040406" opacity="1.000000" stroke="none" 
	d="
M423.981903,199.000000 
	C423.981995,208.124588 423.981995,216.749176 423.981995,225.701263 
	C418.693054,225.701263 413.653290,225.701263 408.096527,225.701263 
	C408.096527,224.189178 408.096588,222.747009 408.096558,221.304825 
	C408.096191,196.364182 408.281952,171.420990 407.942230,146.484970 
	C407.872223,141.344727 409.510712,139.225342 414.276642,138.790085 
	C417.347748,138.509613 420.405090,138.078857 423.981812,137.654587 
	C423.981812,158.359177 423.981812,178.429596 423.981903,199.000000 
z"/>
<path fill="#070708" opacity="1.000000" stroke="none" 
	d="
M437.987732,192.000000 
	C437.987762,182.702545 437.987762,173.905090 437.987762,164.677658 
	C443.240295,164.677658 448.138367,164.677658 453.756744,164.677658 
	C453.756744,174.714828 453.756775,184.775497 453.756775,194.836151 
	C453.756775,204.972443 453.756744,215.108719 453.756744,225.641357 
	C448.601868,225.641357 443.569946,225.641357 437.987671,225.641357 
	C437.987671,214.670212 437.987671,203.585114 437.987732,192.000000 
z"/>
<path fill="#030305" opacity="1.000000" stroke="none" 
	d="
M437.714478,154.051483 
	C433.314301,145.730087 438.142181,138.952545 443.846832,138.045380 
	C448.399567,137.321365 452.117920,138.961243 454.067017,143.248779 
	C455.873230,147.222076 455.885010,151.304520 452.760986,154.778534 
	C449.618286,158.273254 445.747345,158.972290 441.523651,156.959579 
	C440.218445,156.337616 439.138672,155.242554 437.714478,154.051483 
z"/>
<path fill="#2C12DF" opacity="1.000000" stroke="none" 
	d="
M145.595032,185.062637 
	C141.821198,201.513580 142.936188,218.505798 143.120178,235.411682 
	C143.199142,242.667969 144.317429,249.912949 144.667053,257.582947 
	C143.969421,258.003448 143.568253,258.003998 143.167084,258.004578 
	C142.434586,242.668106 141.058029,227.324982 141.215881,211.997681 
	C141.307693,203.084595 143.860931,194.196869 145.595032,185.062637 
z"/>
<path fill="#2F18E1" opacity="1.000000" stroke="none" 
	d="
M323.026428,28.006683 
	C323.443329,25.131170 323.860260,22.255657 324.403320,18.510120 
	C318.707977,19.407288 313.689087,20.197895 308.234894,20.961618 
	C312.767761,19.617294 317.700806,18.108637 322.740967,17.183142 
	C323.520569,17.039988 325.499634,19.483177 325.671234,20.883791 
	C325.940002,23.077528 325.140686,25.402128 324.182434,27.845734 
	C323.389557,28.015676 323.207977,28.011181 323.026428,28.006683 
z"/>
<path fill="#2C12DF" opacity="1.000000" stroke="none" 
	d="
M209.955063,80.390381 
	C209.745789,84.020744 209.614365,88.047432 208.902969,91.968903 
	C208.066055,96.582275 206.726151,101.104393 205.267212,105.825378 
	C206.545471,97.569824 208.160889,89.154984 209.955063,80.390381 
z"/>
<path fill="#260CDF" opacity="1.000000" stroke="none" 
	d="
M202.024002,103.992531 
	C202.010269,99.082657 202.105804,94.168533 201.915237,89.265533 
	C201.859100,87.821388 200.993393,86.408707 200.100098,84.766922 
	C201.899445,82.186264 202.919205,82.707214 203.032791,85.846855 
	C203.240433,91.586746 203.517273,97.324135 203.441010,103.523888 
	C202.752502,103.987648 202.388260,103.990089 202.024002,103.992531 
z"/>
<path fill="#2A11E0" opacity="1.000000" stroke="none" 
	d="
M316.396484,74.064262 
	C317.521820,66.357796 318.960907,58.436108 320.690735,50.261948 
	C319.557709,57.955994 318.133972,65.902519 316.396484,74.064262 
z"/>
<path fill="#2A11E0" opacity="1.000000" stroke="none" 
	d="
M172.409485,272.023438 
	C178.457962,269.644104 184.902390,267.335083 191.748917,265.059509 
	C185.702484,267.426544 179.253967,269.760132 172.409485,272.023438 
z"/>
<path fill="#2C12DF" opacity="1.000000" stroke="none" 
	d="
M296.379761,133.022461 
	C298.221283,126.918831 300.381073,120.635834 302.863586,114.195343 
	C301.023529,120.306267 298.860779,126.574692 296.379761,133.022461 
z"/>
<path fill="#2C12DF" opacity="1.000000" stroke="none" 
	d="
M224.389572,244.976746 
	C221.590698,244.480896 219.140961,243.527863 216.602325,243.089676 
	C214.910156,242.797592 213.091309,243.239380 211.097931,243.058441 
	C214.331894,242.171692 217.779312,241.328613 221.268982,241.081360 
	C223.338821,240.934692 225.822052,241.409805 224.389572,244.976746 
z"/>
<path fill="#2C12DF" opacity="1.000000" stroke="none" 
	d="
M157.034058,199.585571 
	C156.183762,199.163849 154.810883,198.551819 154.431839,197.559998 
	C152.806534,193.306961 151.473816,188.942123 150.075836,184.221283 
	C152.401062,188.956558 154.684906,194.088547 157.034058,199.585571 
z"/>
<path fill="#2A11E0" opacity="1.000000" stroke="none" 
	d="
M161.346619,140.993973 
	C160.346313,145.474594 159.065109,150.158936 157.420624,154.916428 
	C158.393463,150.392288 159.729584,145.794983 161.346619,140.993973 
z"/>
<path fill="#2C12DF" opacity="1.000000" stroke="none" 
	d="
M323.012787,28.432369 
	C323.207977,28.011181 323.389557,28.015676 323.843353,28.030121 
	C323.663757,32.983509 323.211945,37.926945 322.394562,42.922447 
	C321.688293,42.650745 321.347595,42.326984 321.006866,42.003227 
	C321.670959,37.621502 322.335052,33.239780 323.012787,28.432369 
z"/>
<path fill="#2A11E0" opacity="1.000000" stroke="none" 
	d="
M166.685822,129.132965 
	C165.380814,132.807281 163.812271,136.711914 161.873749,140.622803 
	C163.143280,136.873795 164.782791,133.118546 166.685822,129.132965 
z"/>
<path fill="#2F18E1" opacity="1.000000" stroke="none" 
	d="
M281.441071,109.167801 
	C284.194763,107.527191 287.302216,105.790291 290.807129,104.104187 
	C288.067993,105.793831 284.931396,107.432671 281.441071,109.167801 
z"/>
<path fill="#260CDF" opacity="1.000000" stroke="none" 
	d="
M143.090118,258.407196 
	C143.568253,258.003998 143.969421,258.003448 144.670898,258.005554 
	C144.602448,261.611969 144.233704,265.215668 143.476440,268.903198 
	C143.062988,265.594635 143.038055,262.202240 143.090118,258.407196 
z"/>
<path fill="#2A11E0" opacity="1.000000" stroke="none" 
	d="
M135.567322,290.019836 
	C134.749741,293.109955 133.641968,296.417938 132.188904,299.839661 
	C132.988113,296.714874 134.132614,293.476288 135.567322,290.019836 
z"/>
<path fill="#2A11E0" opacity="1.000000" stroke="none" 
	d="
M138.034470,283.385742 
	C137.585449,285.272888 137.019562,287.505066 136.101425,289.824402 
	C136.471985,287.851349 137.194794,285.791046 138.034470,283.385742 
z"/>
<path fill="#2A11E0" opacity="1.000000" stroke="none" 
	d="
M170.587418,122.004349 
	C170.023666,123.772919 169.171814,125.730507 167.938034,127.703598 
	C168.470505,125.877190 169.384918,124.035278 170.587418,122.004349 
z"/>
<path fill="#2A11E0" opacity="1.000000" stroke="none" 
	d="
M321.002472,42.448410 
	C321.347595,42.326984 321.688293,42.650745 322.190308,43.294193 
	C322.133606,45.329548 321.915558,47.045212 321.370575,48.952328 
	C321.028442,47.060383 321.013245,44.976994 321.002472,42.448410 
z"/>
<path fill="#260CDF" opacity="1.000000" stroke="none" 
	d="
M141.943344,272.343750 
	C141.876266,273.270294 141.660477,274.516327 141.115402,275.847107 
	C141.122299,274.842285 141.458466,273.752777 141.943344,272.343750 
z"/>
<path fill="#2C12DF" opacity="1.000000" stroke="none" 
	d="
M150.047363,183.578156 
	C149.235596,183.835205 148.294403,183.786301 146.937469,183.490723 
	C147.653793,183.253418 148.785889,183.262817 150.047363,183.578156 
z"/>
<path fill="#260CDF" opacity="1.000000" stroke="none" 
	d="
M140.589905,275.996582 
	C140.697250,276.944885 140.511566,278.065399 140.107330,279.005829 
	C140.024826,277.940125 140.160843,277.054443 140.589905,275.996582 
z"/>
<path fill="#2C12DF" opacity="1.000000" stroke="none" 
	d="
M202.060120,104.320328 
	C202.388260,103.990089 202.752502,103.987648 203.390182,103.986519 
	C203.781967,104.424576 203.900330,104.861320 204.046814,105.638382 
	C203.415375,105.535179 202.755814,105.091652 202.060120,104.320328 
z"/>
<path fill="#2F18E1" opacity="1.000000" stroke="none" 
	d="
M293.334595,103.034042 
	C293.606720,102.487900 294.160065,101.873711 295.054382,101.415558 
	C294.802216,102.036392 294.209045,102.501198 293.334595,103.034042 
z"/>
<path fill="#2C12DF" opacity="1.000000" stroke="none" 
	d="
M215.205811,253.186523 
	C215.492386,252.619125 216.071136,251.925766 217.021515,251.354095 
	C216.761414,252.004044 216.129715,252.532303 215.205811,253.186523 
z"/>
<path fill="#2A11E0" opacity="1.000000" stroke="none" 
	d="
M168.350571,273.116730 
	C168.825668,272.665039 169.649353,272.336151 170.829803,272.031677 
	C170.357437,272.450562 169.528305,272.845032 168.350571,273.116730 
z"/>
<path fill="#2C12DF" opacity="1.000000" stroke="none" 
	d="
M293.319580,139.944397 
	C293.234436,139.521759 293.400055,138.919815 293.853760,138.174622 
	C293.951324,138.609283 293.760803,139.187195 293.319580,139.944397 
z"/>
<path fill="#2C12DF" opacity="1.000000" stroke="none" 
	d="
M217.623657,251.393829 
	C217.718414,251.010193 218.104599,250.539932 218.838379,250.062653 
	C218.762344,250.472839 218.338699,250.890030 217.623657,251.393829 
z"/>
<path fill="#2A11E0" opacity="1.000000" stroke="none" 
	d="
M314.933350,78.647888 
	C314.786621,78.386772 314.723877,77.812340 314.917694,77.143585 
	C315.121948,77.477692 315.069641,77.906128 314.933350,78.647888 
z"/>
<path fill="#2A11E0" opacity="1.000000" stroke="none" 
	d="
M192.371552,265.118103 
	C192.582962,264.928528 193.112091,264.676880 193.800629,264.645752 
	C193.536453,264.929504 193.112885,264.992798 192.371552,265.118103 
z"/>
<path fill="#2A11E0" opacity="1.000000" stroke="none" 
	d="
M315.377350,76.996552 
	C315.211334,76.548904 315.331604,75.951294 315.713074,75.181610 
	C315.870728,75.621880 315.767181,76.234230 315.377350,76.996552 
z"/>
<path fill="#2F18E1" opacity="1.000000" stroke="none" 
	d="
M297.374878,100.178619 
	C297.446259,99.870628 297.775360,99.491112 298.376953,99.069847 
	C298.310455,99.387764 297.971497,99.747429 297.374878,100.178619 
z"/>
<path fill="#2F18E1" opacity="1.000000" stroke="none" 
	d="
M295.699219,101.413635 
	C295.790222,101.045311 296.152191,100.575653 296.865173,100.133171 
	C296.800873,100.544334 296.385498,100.928314 295.699219,101.413635 
z"/>
<path fill="#2F18E1" opacity="1.000000" stroke="none" 
	d="
M291.386719,104.176437 
	C291.543549,103.857277 291.998260,103.468224 292.780457,103.069565 
	C292.633514,103.408813 292.159027,103.757675 291.386719,104.176437 
z"/>
<path fill="#2C12DF" opacity="1.000000" stroke="none" 
	d="
M295.311951,135.938202 
	C295.186188,135.540009 295.303192,134.956741 295.666687,134.198929 
	C295.793671,134.600616 295.674194,135.176880 295.311951,135.938202 
z"/>
<path fill="#2C12DF" opacity="1.000000" stroke="none" 
	d="
M294.330200,137.956909 
	C294.234863,137.528336 294.395111,136.924362 294.842072,136.175369 
	C294.947784,136.614075 294.766785,137.197815 294.330200,137.956909 
z"/>
<path fill="#2C12DF" opacity="1.000000" stroke="none" 
	d="
M158.182068,201.635895 
	C157.866699,201.473846 157.478989,201.011475 157.073029,200.221146 
	C157.406418,200.373978 157.758072,200.854782 158.182068,201.635895 
z"/>
<path fill="#2A11E0" opacity="1.000000" stroke="none" 
	d="
M167.466125,127.773422 
	C167.623749,128.011597 167.524048,128.367386 167.165985,128.847061 
	C167.008026,128.610992 167.108414,128.251007 167.466125,127.773422 
z"/>
<path fill="#2A11E0" opacity="1.000000" stroke="none" 
	d="
M171.014328,121.236084 
	C171.255142,121.232201 171.384872,121.435188 171.514587,121.638168 
	C171.404755,121.706116 171.294922,121.774063 170.989410,121.870811 
	C170.793732,121.899612 170.903229,121.442940 171.014328,121.236084 
z"/>
<path fill="#2C12DF" opacity="1.000000" stroke="none" 
	d="
M303.305267,114.061150 
	C303.111694,113.841614 303.241302,113.552071 303.657745,113.169708 
	C303.753174,113.343117 303.647797,113.647865 303.305267,114.061150 
z"/>
<path fill="#2C12DF" opacity="1.000000" stroke="none" 
	d="
M292.377045,141.452896 
	C292.233582,141.196732 292.389771,140.780502 292.836792,140.193954 
	C292.977295,140.446701 292.826996,140.869766 292.377045,141.452896 
z"/>
<path fill="#2C12DF" opacity="1.000000" stroke="none" 
	d="
M146.302429,183.778534 
	C146.485794,184.038177 146.412354,184.384094 146.066772,184.827805 
	C145.878311,184.572006 145.961960,184.218414 146.302429,183.778534 
z"/>
<path fill="#2C12DF" opacity="1.000000" stroke="none" 
	d="
M220.343323,249.159729 
	C220.274902,248.950867 220.467941,248.614014 220.943024,248.174896 
	C221.018311,248.392349 220.811539,248.712051 220.343323,249.159729 
z"/>
<path fill="#2C12DF" opacity="1.000000" stroke="none" 
	d="
M221.350204,248.119827 
	C221.296890,247.904266 221.517593,247.582321 222.026260,247.171204 
	C222.084213,247.392487 221.854218,247.702972 221.350204,248.119827 
z"/>
<path fill="#260CDF" opacity="1.000000" stroke="none" 
	d="
M199.348190,84.616104 
	C199.429993,84.812630 199.341324,85.076843 199.125244,85.172302 
	C198.997864,85.003555 199.177704,84.683792 199.348190,84.616104 
z"/>
<path fill="#F9F8FE" opacity="1.000000" stroke="none" 
	d="
M263.072662,77.019806 
	C268.058472,72.237907 273.044281,67.456001 278.030090,62.674099 
	C278.497528,63.047165 278.964996,63.420227 279.432434,63.793293 
	C277.650848,66.329895 276.014008,68.984299 274.062012,71.382187 
	C266.666718,80.466713 259.132874,89.438324 251.721634,98.510025 
	C245.778030,105.785309 239.557526,112.875671 234.138123,120.528389 
	C225.762466,132.355576 217.586319,144.360626 210.025986,156.718719 
	C201.868774,170.052505 194.473740,183.854813 186.828827,197.499054 
	C181.212387,207.522980 175.632980,217.570389 170.236938,227.713654 
	C168.265182,231.420120 166.869919,235.433289 164.854370,239.848663 
	C164.210617,241.195511 163.924149,242.000259 163.637695,242.805023 
	C163.637695,242.805023 163.796310,242.873520 163.549271,242.908752 
	C163.220596,243.291031 163.138962,243.638062 163.057312,243.985092 
	C163.057312,243.985092 162.859634,244.294617 162.611023,244.673309 
	C162.177505,245.688782 161.992615,246.325562 161.807724,246.962357 
	C161.807724,246.962357 161.930862,246.952560 161.644180,247.057755 
	C161.174011,247.759567 160.990524,248.356186 160.807022,248.952805 
	C160.807022,248.952805 160.926392,248.948715 160.642731,249.056625 
	C160.175293,249.760101 159.991531,250.355667 159.807755,250.951233 
	C159.807755,250.951233 159.926407,250.948013 159.645050,251.058029 
	C159.169525,251.759323 158.975357,252.350601 158.781219,252.941895 
	C158.781219,252.941895 158.911667,252.940567 158.627686,253.044785 
	C158.145844,253.742126 157.947968,254.335251 157.750107,254.928375 
	C157.750107,254.928375 157.891479,254.929932 157.603653,255.030640 
	C157.139191,255.736115 156.962540,256.340881 156.785904,256.945618 
	C156.785904,256.945618 156.914948,256.943390 156.630585,257.050110 
	C156.183609,257.760345 156.020996,258.363861 155.858383,258.967377 
	C155.858383,258.967377 155.951172,258.962219 155.661743,259.148376 
	C155.089737,260.486725 154.807159,261.638885 154.524582,262.791046 
	C154.524582,262.791046 154.699265,262.645569 154.426575,262.649048 
	C154.153885,262.652496 154.000732,262.994019 154.000732,262.994019 
	C151.511826,256.775757 153.302170,250.750000 155.548035,245.096863 
	C159.343048,235.544266 163.809021,226.258224 168.273071,216.412170 
	C168.671768,215.650726 168.790222,215.337204 168.908676,215.023682 
	C168.908676,215.023682 169.057083,214.622314 169.340454,214.255402 
	C169.861481,213.298416 170.099136,212.708313 170.336792,212.118210 
	C170.336792,212.118210 170.176880,212.099823 170.466492,212.006851 
	C170.937622,211.306320 171.119125,210.698776 171.300629,210.091217 
	C171.300629,210.091217 171.141571,210.080444 171.430420,209.987915 
	C171.903000,209.288040 172.086746,208.680679 172.270493,208.073318 
	C172.270493,208.073318 172.116501,208.071671 172.408142,207.978210 
	C172.880722,207.276337 173.061646,206.667938 173.242584,206.059540 
	C173.242584,206.059540 173.097336,206.060852 173.385345,205.963440 
	C173.861298,205.263809 174.049255,204.661560 174.237213,204.059311 
	C174.237213,204.059311 174.095917,204.060013 174.380722,203.957596 
	C174.844070,203.251526 175.022614,202.647873 175.201157,202.044220 
	C175.201157,202.044220 175.073105,202.049164 175.358292,201.944946 
	C175.829895,201.242081 176.016296,200.643433 176.202713,200.044769 
	C176.202713,200.044769 176.074142,200.049515 176.357925,199.943527 
	C176.818939,199.236740 176.996155,198.635956 177.173386,198.035156 
	C177.173386,198.035156 177.058517,198.041779 177.338348,197.929642 
	C177.810135,197.225616 178.002075,196.633713 178.194016,196.041824 
	C178.194016,196.041824 178.068970,196.047714 178.354034,195.943451 
	C178.834656,195.244553 179.030228,194.649918 179.225815,194.055267 
	C179.225815,194.055267 179.088394,194.057938 179.377609,193.959320 
	C179.854553,193.258438 180.042282,192.656158 180.230026,192.053879 
	C180.230026,192.053879 180.088684,192.057571 180.380203,191.963226 
	C180.865356,191.267471 181.059006,190.666077 181.252655,190.064682 
	C181.252640,190.064682 181.103699,190.066589 181.395691,189.974945 
	C181.889267,189.285172 182.090820,188.687057 182.292389,188.088959 
	C182.292404,188.088959 182.134338,188.084763 182.427612,187.995544 
	C182.920059,187.306519 183.119217,186.706696 183.318390,186.106873 
	C183.318375,186.106873 183.126801,186.075623 183.393494,186.058899 
	C183.777313,185.692535 183.894440,185.342896 184.011566,184.993240 
	C184.011566,184.993240 184.179733,184.828094 184.417542,184.497818 
	C184.722382,183.460342 184.789413,182.753143 184.856445,182.045944 
	C189.457993,174.348221 193.928894,166.568512 198.696091,158.974792 
	C203.959091,150.591309 209.183716,142.153534 214.988647,134.148087 
	C222.231339,124.159866 229.964966,114.521561 237.657135,104.868042 
	C241.193832,100.429581 245.136444,96.314560 249.258286,91.584641 
	C249.828369,90.770088 250.035141,90.423767 250.241913,90.077454 
	C250.241928,90.077461 250.068954,90.090706 250.358612,90.070084 
	C250.836411,89.725372 251.024567,89.401283 251.212708,89.077194 
	C251.212708,89.077194 251.064590,89.062439 251.333832,89.031555 
	C251.805420,88.692757 252.007736,88.384850 252.210052,88.076942 
	C252.210052,88.076942 252.060043,88.054268 252.332794,88.026085 
	C252.832077,87.691162 253.058609,87.384415 253.285156,87.077667 
	C254.143372,86.304543 255.001602,85.531418 256.204376,84.354675 
	C256.749481,83.646507 256.950012,83.341957 257.150574,83.037407 
	C257.150574,83.037407 257.049683,83.046394 257.341248,82.970123 
	C258.148041,82.279663 258.663300,81.665482 259.178528,81.051292 
	C259.515472,81.046410 259.767120,80.897423 260.232025,80.265015 
	C260.722229,79.626450 260.913849,79.327187 261.105499,79.027924 
	C261.105499,79.027931 261.028290,79.026077 261.304504,78.929764 
	C262.078003,78.228905 262.575317,77.624359 263.072662,77.019806 
z"/>
<path fill="#2A11E0" opacity="1.000000" stroke="none" 
	d="
M163.960480,242.780243 
	C163.924149,242.000259 164.210617,241.195511 164.758606,240.201126 
	C164.774521,240.926147 164.528915,241.840820 163.960480,242.780243 
z"/>
<path fill="#2A11E0" opacity="1.000000" stroke="none" 
	d="
M154.902039,262.687866 
	C154.807159,261.638885 155.089737,260.486725 155.649689,259.103516 
	C155.711212,260.109894 155.495361,261.347290 154.902039,262.687866 
z"/>
<path fill="#2A11E0" opacity="1.000000" stroke="none" 
	d="
M262.735535,77.053680 
	C262.575317,77.624359 262.078003,78.228905 261.315613,78.966743 
	C261.499817,78.429207 261.949097,77.758377 262.735535,77.053680 
z"/>
<path fill="#2A11E0" opacity="1.000000" stroke="none" 
	d="
M258.828278,81.067650 
	C258.663300,81.665482 258.148041,82.279663 257.355988,83.018570 
	C257.545441,82.456871 258.011749,81.770439 258.828278,81.067650 
z"/>
<path fill="#2A11E0" opacity="1.000000" stroke="none" 
	d="
M162.119186,246.801147 
	C161.992615,246.325562 162.177505,245.688782 162.633270,244.855576 
	C162.746292,245.319427 162.588470,245.979691 162.119186,246.801147 
z"/>
<path fill="#260CDF" opacity="1.000000" stroke="none" 
	d="
M173.926514,204.190765 
	C174.049255,204.661560 173.861298,205.263809 173.403595,206.033752 
	C173.294479,205.575058 173.455124,204.948639 173.926514,204.190765 
z"/>
<path fill="#2A11E0" opacity="1.000000" stroke="none" 
	d="
M161.107330,248.815430 
	C160.990524,248.356186 161.174011,247.759567 161.626480,246.998596 
	C161.732849,247.448837 161.570236,248.063431 161.107330,248.815430 
z"/>
<path fill="#260CDF" opacity="1.000000" stroke="none" 
	d="
M170.008972,212.224594 
	C170.099136,212.708313 169.861481,213.298416 169.339752,214.041443 
	C169.264145,213.573242 169.472641,212.952103 170.008972,212.224594 
z"/>
<path fill="#260CDF" opacity="1.000000" stroke="none" 
	d="
M170.974884,210.211914 
	C171.119125,210.698776 170.937622,211.306320 170.488190,212.084351 
	C170.363220,211.614090 170.506180,210.973343 170.974884,210.211914 
z"/>
<path fill="#260CDF" opacity="1.000000" stroke="none" 
	d="
M171.952118,208.201111 
	C172.086746,208.680679 171.903000,209.288040 171.449860,210.065216 
	C171.331558,209.599670 171.482666,208.964294 171.952118,208.201111 
z"/>
<path fill="#260CDF" opacity="1.000000" stroke="none" 
	d="
M172.929794,206.192627 
	C173.061646,206.667938 172.880722,207.276337 172.428284,208.052521 
	C172.310181,207.588776 172.463608,206.957245 172.929794,206.192627 
z"/>
<path fill="#2A11E0" opacity="1.000000" stroke="none" 
	d="
M160.110489,250.817505 
	C159.991531,250.355667 160.175293,249.760101 160.626923,248.999039 
	C160.734238,249.450287 160.573730,250.067032 160.110489,250.817505 
z"/>
<path fill="#2A11E0" opacity="1.000000" stroke="none" 
	d="
M159.085678,252.809937 
	C158.975357,252.350601 159.169525,251.759323 159.629578,251.000732 
	C159.727051,251.448257 159.558594,252.063110 159.085678,252.809937 
z"/>
<path fill="#2A11E0" opacity="1.000000" stroke="none" 
	d="
M158.060760,254.801315 
	C157.947968,254.335251 158.145844,253.742126 158.610672,252.981812 
	C158.708893,253.434509 158.540161,254.054382 158.060760,254.801315 
z"/>
<path fill="#2A11E0" opacity="1.000000" stroke="none" 
	d="
M157.092484,256.808441 
	C156.962540,256.340881 157.139191,255.736115 157.584579,254.962585 
	C157.701904,255.419632 157.550491,256.045441 157.092484,256.808441 
z"/>
<path fill="#2A11E0" opacity="1.000000" stroke="none" 
	d="
M156.151688,258.820374 
	C156.020996,258.363861 156.183609,257.760345 156.613770,256.987823 
	C156.735870,257.437012 156.590424,258.055176 156.151688,258.820374 
z"/>
<path fill="#260CDF" opacity="1.000000" stroke="none" 
	d="
M174.895554,202.181656 
	C175.022614,202.647873 174.844070,203.251526 174.398438,204.026001 
	C174.284210,203.570908 174.437088,202.944992 174.895554,202.181656 
z"/>
<path fill="#260CDF" opacity="1.000000" stroke="none" 
	d="
M184.601318,182.289825 
	C184.789413,182.753143 184.722382,183.460342 184.364014,184.392822 
	C184.163849,183.923309 184.255020,183.228516 184.601318,182.289825 
z"/>
<path fill="#260CDF" opacity="1.000000" stroke="none" 
	d="
M182.990601,186.219101 
	C183.119217,186.706696 182.920059,187.306519 182.449890,188.071411 
	C182.340210,187.601425 182.501526,186.966370 182.990601,186.219101 
z"/>
<path fill="#260CDF" opacity="1.000000" stroke="none" 
	d="
M181.971802,188.207825 
	C182.090820,188.687057 181.889267,189.285172 181.415558,190.046722 
	C181.312683,189.582321 181.481949,188.954514 181.971802,188.207825 
z"/>
<path fill="#260CDF" opacity="1.000000" stroke="none" 
	d="
M180.941162,190.194702 
	C181.059006,190.666077 180.865356,191.267471 180.398285,192.031555 
	C180.293121,191.571075 180.461395,190.947891 180.941162,190.194702 
z"/>
<path fill="#260CDF" opacity="1.000000" stroke="none" 
	d="
M179.921631,192.187927 
	C180.042282,192.656158 179.854553,193.258438 179.395172,194.025757 
	C179.286758,193.567871 179.450012,192.944931 179.921631,192.187927 
z"/>
<path fill="#260CDF" opacity="1.000000" stroke="none" 
	d="
M178.917862,194.184235 
	C179.030228,194.649918 178.834656,195.244553 178.369858,196.004028 
	C178.270386,195.550293 178.440155,194.931763 178.917862,194.184235 
z"/>
<path fill="#260CDF" opacity="1.000000" stroke="none" 
	d="
M177.894165,196.177917 
	C178.002075,196.633713 177.810135,197.225616 177.352722,197.985352 
	C177.256271,197.540146 177.425278,196.927078 177.894165,196.177917 
z"/>
<path fill="#260CDF" opacity="1.000000" stroke="none" 
	d="
M176.874695,198.176346 
	C176.996155,198.635956 176.818939,199.236740 176.373978,200.005814 
	C176.262817,199.555237 176.419403,198.936386 176.874695,198.176346 
z"/>
<path fill="#260CDF" opacity="1.000000" stroke="none" 
	d="
M175.900375,200.182037 
	C176.016296,200.643433 175.829895,201.242081 175.374298,202.007004 
	C175.269424,201.555283 175.433731,200.937286 175.900375,200.182037 
z"/>
<path fill="#2A11E0" opacity="1.000000" stroke="none" 
	d="
M154.132202,263.147156 
	C154.000732,262.994019 154.153885,262.652496 154.327362,262.593597 
	C154.421783,262.789917 154.342743,263.045105 154.132202,263.147156 
z"/>
<path fill="#2A11E0" opacity="1.000000" stroke="none" 
	d="
M249.945892,90.197830 
	C250.035141,90.423767 249.828369,90.770088 249.356888,91.278038 
	C249.278076,91.065849 249.463974,90.692032 249.945892,90.197830 
z"/>
<path fill="#2A11E0" opacity="1.000000" stroke="none" 
	d="
M250.935745,89.169991 
	C251.024567,89.401283 250.836411,89.725372 250.381866,90.153648 
	C250.296570,89.926147 250.477661,89.594460 250.935745,89.169991 
z"/>
<path fill="#2A11E0" opacity="1.000000" stroke="none" 
	d="
M251.935593,88.165314 
	C252.007736,88.384850 251.805420,88.692757 251.340424,89.105682 
	C251.272217,88.891701 251.466675,88.572693 251.935593,88.165314 
z"/>
<path fill="#260CDF" opacity="1.000000" stroke="none" 
	d="
M183.768143,185.123352 
	C183.894440,185.342896 183.777313,185.692535 183.399811,186.155762 
	C183.267868,185.930695 183.396286,185.592072 183.768143,185.123352 
z"/>
<path fill="#2A11E0" opacity="1.000000" stroke="none" 
	d="
M253.002045,87.166679 
	C253.058609,87.384415 252.832077,87.691162 252.333923,88.101929 
	C252.281189,87.889198 252.500061,87.572441 253.002045,87.166679 
z"/>
<path fill="#2A11E0" opacity="1.000000" stroke="none" 
	d="
M260.858093,79.141510 
	C260.913849,79.327187 260.722229,79.626450 260.285767,80.043274 
	C260.230865,79.858925 260.420776,79.557007 260.858093,79.141510 
z"/>
<path fill="#2A11E0" opacity="1.000000" stroke="none" 
	d="
M163.287292,243.848465 
	C163.138962,243.638062 163.220596,243.291031 163.550537,242.822388 
	C163.704987,243.037781 163.611130,243.374817 163.287292,243.848465 
z"/>
<path fill="#260CDF" opacity="1.000000" stroke="none" 
	d="
M168.687363,215.136368 
	C168.790222,215.337204 168.671768,215.650726 168.294189,216.048462 
	C168.092316,215.795944 168.235962,215.501419 168.687363,215.136368 
z"/>
<path fill="#2A11E0" opacity="1.000000" stroke="none" 
	d="
M256.892609,83.151245 
	C256.950012,83.341957 256.749481,83.646507 256.301575,84.078621 
	C256.247711,83.892487 256.441162,83.578789 256.892609,83.151245 
z"/>
<path fill="#FAFAFA" opacity="1.000000" stroke="none" 
	d="
M374.117828,208.376373 
	C367.654083,209.351547 361.483734,210.370300 355.281036,210.636765 
	C351.451416,210.801300 349.317139,208.267426 349.424652,204.226349 
	C349.517365,200.741425 349.110748,197.155945 349.831360,193.810135 
	C350.218872,192.010773 352.419312,189.388474 353.962433,189.272263 
	C359.196381,188.878113 364.522247,189.215515 369.773987,189.697861 
	C374.174622,190.102020 377.741943,192.402878 378.826202,196.880844 
	C379.925201,201.419830 378.345093,205.335770 374.117828,208.376373 
z"/>
<path fill="#F9F9F9" opacity="1.000000" stroke="none" 
	d="
M363.683533,155.266388 
	C365.448639,155.461838 366.764191,155.640030 368.079041,155.822937 
	C375.113617,156.801559 378.010498,159.362473 378.002441,164.593521 
	C377.994507,169.737579 373.617706,174.451874 367.842377,174.917282 
	C363.383392,175.276581 358.873474,175.017807 354.386353,175.000000 
	C353.734375,174.997421 352.879547,175.035919 352.462677,174.666794 
	C347.682312,170.434097 349.687714,164.853195 349.722321,159.728241 
	C349.748199,155.897263 352.940857,155.520508 355.760101,155.268127 
	C358.231995,155.046875 360.741028,155.240799 363.683533,155.266388 
z"/>
<path fill="#FCFCFC" opacity="1.000000" stroke="none" 
	d="
M633.097290,210.995392 
	C630.353821,210.685165 627.857910,210.862793 625.817383,209.983688 
	C618.648376,206.895142 622.817810,200.446136 622.260986,195.550140 
	C622.034912,193.562576 624.642822,189.452026 626.106323,189.382935 
	C632.634277,189.074783 639.350403,189.211075 645.729431,190.509338 
	C650.135254,191.406006 652.469971,195.412491 652.024597,200.407669 
	C651.639160,204.731232 648.046204,209.030167 643.412415,209.914627 
	C640.175110,210.532532 636.843323,210.654907 633.097290,210.995392 
z"/>
<path fill="#FAFBFB" opacity="1.000000" stroke="none" 
	d="
M622.557251,158.027603 
	C625.573486,156.878433 628.256409,155.593506 631.035095,155.334122 
	C634.287598,155.030518 637.640259,155.475342 640.919800,155.852951 
	C647.507507,156.611465 651.011780,159.712875 650.954224,164.473206 
	C650.889282,169.844940 645.939453,174.637756 639.815674,174.964828 
	C635.850220,175.176636 631.863342,174.949539 627.889160,175.047073 
	C623.850708,175.146164 622.206848,172.779343 622.057312,169.247833 
	C621.903870,165.623154 622.178894,161.980362 622.557251,158.027603 
z"/>
<path fill="#FCFCFC" opacity="1.000000" stroke="none" 
	d="
M810.929382,209.995117 
	C801.637939,209.125076 798.053223,205.590607 796.625488,196.306915 
	C795.372681,188.160263 799.370483,180.715607 806.542969,177.839020 
	C812.890564,175.293259 820.141479,177.079102 823.862244,182.457077 
	C829.966431,191.280075 828.878296,207.971741 810.929382,209.995117 
z"/>
<path fill="#FDFDFD" opacity="1.000000" stroke="none" 
	d="
M737.474609,213.882812 
	C723.015015,211.161804 720.575012,192.145126 728.186890,182.409531 
	C734.038391,174.925491 746.014771,174.882843 751.917480,182.552673 
	C757.194275,189.409073 757.516846,197.189682 754.087341,204.947052 
	C751.032043,211.857986 745.120850,214.246384 737.474609,213.882812 
z"/>
</svg>