<svg version="1.1" id="Layer_1" xmlns="http://www.w3.org/2000/svg" xmlns:xlink="http://www.w3.org/1999/xlink" x="0px" y="0px"
	 width="100%" viewBox="0 0 218 352" enable-background="new 0 0 218 352" xml:space="preserve">
<path fill="#FEFEFE" opacity="1.000000" stroke="none" 
	d="
M97.000000,353.000000 
	C64.666664,353.000000 32.833332,353.000000 1.000000,353.000000 
	C1.000000,235.666672 1.000000,118.333336 1.000000,1.000000 
	C73.666664,1.000000 146.333328,1.000000 219.000000,1.000000 
	C219.000000,118.333336 219.000000,235.666672 219.000000,353.000000 
	C178.500000,353.000000 138.000000,353.000000 97.000000,353.000000 
M110.067841,259.068939 
	C110.067841,259.068939 110.085312,259.231354 110.630608,259.016724 
	C110.859093,258.706665 111.087585,258.396637 111.722549,258.001831 
	C111.987595,257.842041 112.111305,257.607666 112.744217,256.900574 
	C115.354546,253.963577 113.934532,252.121994 110.787239,252.129990 
	C107.145401,252.139221 103.506142,253.168427 99.210220,253.848022 
	C98.290085,253.976501 97.369949,254.104965 96.449806,254.233444 
	C97.661354,252.362289 99.028801,251.401978 100.524216,250.723862 
	C116.795235,243.345459 130.627838,232.679840 142.192963,219.174240 
	C146.885590,213.694244 150.776306,207.527542 155.564423,201.553299 
	C155.749817,201.047974 155.935211,200.542648 156.040268,200.041336 
	C156.040268,200.041336 156.066193,200.117462 156.564774,199.754181 
	C156.693741,199.174820 156.822723,198.595459 157.101608,197.649673 
	C157.101608,197.649673 157.081406,197.254303 157.739716,196.838425 
	C158.245239,194.784012 158.750763,192.729599 159.629822,189.157196 
	C152.371780,190.622330 146.667572,191.773788 140.227570,193.044312 
	C138.836411,193.140976 137.445251,193.237656 135.291840,193.387299 
	C136.159134,191.837891 136.242844,191.458710 136.475250,191.306335 
	C145.134247,185.630066 154.220474,180.510620 162.391800,174.205109 
	C179.432480,161.055481 187.307022,142.130417 193.331650,122.254868 
	C194.221939,119.317749 192.835968,118.208931 190.077850,118.762428 
	C187.395981,119.300621 184.807343,120.392227 182.112381,120.754898 
	C178.354065,121.260658 174.534973,121.314644 170.741882,121.561974 
	C170.657333,120.959999 170.572784,120.358017 170.488235,119.756042 
	C171.845261,118.909081 173.100052,117.642441 174.575821,117.282906 
	C184.546295,114.853920 190.878250,107.514549 197.082718,100.297905 
	C200.072327,96.820610 201.762039,92.225731 204.636948,87.864098 
	C204.749466,87.245888 204.861969,86.627678 205.131287,85.659622 
	C205.131287,85.659622 205.083191,85.279274 205.710678,84.848923 
	C207.134338,76.902405 208.557999,68.955887 210.052979,60.579479 
	C210.052979,60.579479 210.043930,60.143810 210.703461,59.754093 
	C211.043686,57.502308 211.383911,55.250523 211.950211,52.178528 
	C212.338547,47.799034 212.726883,43.419537 213.793274,38.671089 
	C214.140106,36.402065 214.939255,34.077621 214.670486,31.884022 
	C214.498917,30.483530 212.520111,28.040541 211.740616,28.183674 
	C206.700775,29.109100 201.768005,30.617605 196.123123,32.252529 
	C191.953537,33.467117 187.676971,34.404705 183.640289,35.963474 
	C178.072861,38.113354 172.696442,40.754913 167.219727,43.143440 
	C161.977921,45.429512 156.528198,47.315357 151.498505,49.994186 
	C142.919434,54.563431 134.209976,59.061440 126.271744,64.613701 
	C117.558533,70.707993 109.542595,77.830887 101.502182,84.826660 
	C100.026779,86.110374 99.886024,88.928040 98.772293,91.735565 
	C97.156303,100.151382 95.540314,108.567200 93.501678,117.060600 
	C93.501678,117.060600 93.080276,116.976517 93.000336,116.045898 
	C92.664253,108.816551 92.328178,101.587196 91.936142,93.154022 
	C90.100266,94.573257 89.193893,95.273933 87.913879,96.566589 
	C85.428825,98.976494 82.606873,101.127792 80.521469,103.844475 
	C74.103012,112.205879 67.711182,120.610138 61.788399,129.323593 
	C55.256794,138.932739 50.353710,149.380859 47.275372,161.195801 
	C46.371670,166.337936 44.658588,171.494019 44.746983,176.619034 
	C44.893028,185.086029 46.201626,193.532959 46.893997,202.823792 
	C47.312328,205.909958 47.730656,208.996140 48.148987,212.082306 
	C46.027760,209.864120 45.019413,207.336060 43.840523,204.890213 
	C42.306160,201.706818 40.958500,198.359756 38.932129,195.508377 
	C36.997066,192.785477 35.433712,193.867416 34.288342,197.181274 
	C32.894646,204.110611 31.500954,211.039963 29.973459,218.491852 
	C30.017488,218.666199 30.061518,218.840530 29.994923,219.894516 
	C30.033188,222.257904 30.071453,224.621277 29.955742,227.735535 
	C30.010929,228.496033 30.066118,229.256546 30.015408,230.868073 
	C30.068329,232.579453 30.121250,234.290817 30.026798,236.779999 
	C30.328548,238.530319 30.630299,240.280640 30.733473,242.926361 
	C31.247183,250.821121 31.920980,258.709869 32.217606,266.612762 
	C32.411255,271.772064 33.091248,277.246857 31.718878,282.056915 
	C29.361689,290.318726 25.415440,298.113983 22.420208,306.210144 
	C18.503756,316.796387 14.730034,327.440552 11.175145,338.152771 
	C9.896249,342.006592 9.429657,346.130005 8.438599,350.864990 
	C17.678600,348.907043 22.960707,342.930054 27.171881,336.543854 
	C36.078606,323.036835 41.052803,307.656952 46.214291,292.444672 
	C47.271046,289.330139 48.558025,286.693909 52.773834,285.909607 
	C55.245041,284.958557 57.716244,284.007477 60.607273,283.062073 
	C60.607273,283.062073 61.012932,282.953796 61.804901,283.094696 
	C68.241058,280.740936 74.677216,278.387177 81.775513,275.759583 
	C83.533653,274.898987 85.325668,274.100708 87.043724,273.166382 
	C92.717354,270.080963 98.364265,266.946442 104.602867,263.896942 
	C105.196693,263.421509 105.790520,262.946045 106.280228,262.207947 
	C106.280228,262.207947 106.318748,262.487854 106.907997,262.320099 
	C107.335129,261.899750 107.762260,261.479370 108.619324,260.980652 
	C108.920105,260.848572 109.075745,260.618347 109.608521,260.036285 
	C109.815903,259.718018 110.023285,259.399780 110.067841,259.068939 
z"/>
<path fill="#4527E3" opacity="1.000000" stroke="none" 
	d="
M155.031906,201.673309 
	C150.776306,207.527542 146.885590,213.694244 142.192963,219.174240 
	C130.627838,232.679840 116.795235,243.345459 100.524216,250.723862 
	C99.028801,251.401978 97.661354,252.362289 96.449806,254.233444 
	C97.369949,254.104965 98.290085,253.976501 99.768059,254.099091 
	C103.216988,254.234863 106.149750,253.796356 108.978935,254.161179 
	C110.132851,254.309982 111.062172,256.200562 112.093681,257.298676 
	C112.111305,257.607666 111.987595,257.842041 111.231201,258.131989 
	C110.521667,258.585205 110.303490,258.908295 110.085312,259.231354 
	C110.085312,259.231354 110.067841,259.068939 109.866440,259.175049 
	C109.472107,259.617432 109.279175,259.953705 109.086243,260.290009 
	C109.075745,260.618347 108.920105,260.848572 108.055412,261.026337 
	C107.100578,261.543976 106.709663,262.015900 106.318748,262.487854 
	C106.318748,262.487854 106.280228,262.207947 106.004913,262.219757 
	C105.160210,262.764618 104.590828,263.297699 104.021439,263.830750 
	C98.364265,266.946442 92.717354,270.080963 87.043724,273.166382 
	C85.325668,274.100708 83.533653,274.898987 81.045509,275.886719 
	C73.881310,278.327148 67.447121,280.640472 61.012932,282.953796 
	C61.012932,282.953796 60.607273,283.062073 59.984798,283.033691 
	C56.916653,283.945709 54.470978,284.886078 52.025307,285.826477 
	C48.558025,286.693909 47.271046,289.330139 46.214291,292.444672 
	C41.052803,307.656952 36.078606,323.036835 27.171881,336.543854 
	C22.960707,342.930054 17.678600,348.907043 8.438599,350.864990 
	C9.429657,346.130005 9.896249,342.006592 11.175145,338.152771 
	C14.730034,327.440552 18.503756,316.796387 22.420208,306.210144 
	C25.415440,298.113983 29.361689,290.318726 31.718878,282.056915 
	C33.091248,277.246857 32.411255,271.772064 32.217606,266.612762 
	C31.920980,258.709869 31.247183,250.821121 31.135654,242.231079 
	C31.678665,239.692398 31.819492,237.848984 31.970078,235.600052 
	C31.360325,233.468704 30.740814,231.742874 30.121304,230.017044 
	C30.066118,229.256546 30.010929,228.496033 30.405115,227.281921 
	C32.307247,224.060623 33.477432,221.320053 30.105547,219.014847 
	C30.061518,218.840530 30.017488,218.666199 30.375164,218.041107 
	C32.171322,210.681229 33.565773,203.772095 34.960224,196.862961 
	C35.433712,193.867416 36.997066,192.785477 38.932129,195.508377 
	C40.958500,198.359756 42.306160,201.706818 43.840523,204.890213 
	C45.019413,207.336060 46.027760,209.864120 48.148987,212.082306 
	C47.730656,208.996140 47.312328,205.909958 47.233719,202.153931 
	C47.055164,192.652420 46.232464,183.823898 46.141891,174.987869 
	C46.093708,170.287216 47.313286,165.573593 47.960625,160.865814 
	C50.353710,149.380859 55.256794,138.932739 61.788399,129.323593 
	C67.711182,120.610138 74.103012,112.205879 80.521469,103.844475 
	C82.606873,101.127792 85.428825,98.976494 88.496635,96.301117 
	C89.712616,97.325775 90.823029,98.590965 90.892014,99.910599 
	C91.123947,104.347191 90.832527,108.811813 91.083748,113.246315 
	C91.156090,114.523323 92.382812,115.734924 93.080276,116.976517 
	C93.080276,116.976517 93.501678,117.060600 94.051437,116.864334 
	C95.724648,112.105408 97.067513,107.582535 97.904381,102.967903 
	C98.615608,99.046097 98.743324,95.018463 99.129211,91.037651 
	C99.886024,88.928040 100.026779,86.110374 101.502182,84.826660 
	C109.542595,77.830887 117.558533,70.707993 126.271744,64.613701 
	C134.209976,59.061440 142.919434,54.563431 151.498505,49.994186 
	C156.528198,47.315357 161.977921,45.429512 167.219727,43.143440 
	C172.696442,40.754913 178.072861,38.113354 183.640289,35.963474 
	C187.676971,34.404705 191.953537,33.467117 196.896912,32.120537 
	C202.689407,31.197950 207.708115,30.407352 213.403015,29.510235 
	C212.860428,33.255302 212.443771,36.131145 212.013275,39.432617 
	C211.335281,44.238987 210.671127,48.619724 210.002441,53.445972 
	C210.013229,55.975594 210.028580,58.059704 210.043945,60.143810 
	C210.043930,60.143810 210.052979,60.579479 209.726685,61.046993 
	C207.961319,69.436096 206.522263,77.357689 205.083191,85.279274 
	C205.083191,85.279274 205.131287,85.659622 204.791855,86.006516 
	C204.315079,86.947906 204.177719,87.542412 204.040375,88.136917 
	C201.762039,92.225731 200.072327,96.820610 197.082718,100.297905 
	C190.878250,107.514549 184.546295,114.853920 174.575821,117.282906 
	C173.100052,117.642441 171.845261,118.909081 170.488235,119.756042 
	C170.572784,120.358017 170.657333,120.959999 170.741882,121.561974 
	C174.534973,121.314644 178.354065,121.260658 182.112381,120.754898 
	C184.807343,120.392227 187.395981,119.300621 190.077850,118.762428 
	C192.835968,118.208931 194.221939,119.317749 193.331650,122.254868 
	C187.307022,142.130417 179.432480,161.055481 162.391800,174.205109 
	C154.220474,180.510620 145.134247,185.630066 136.475250,191.306335 
	C136.242844,191.458710 136.159134,191.837891 135.291840,193.387299 
	C137.445251,193.237656 138.836411,193.140976 140.831619,193.271210 
	C146.597717,192.914261 151.759766,192.330414 157.081406,191.728500 
	C157.081406,194.011795 157.081406,195.633041 157.081406,197.254303 
	C157.081406,197.254303 157.101608,197.649673 156.773499,198.003754 
	C156.319000,198.944382 156.192596,199.530914 156.066193,200.117462 
	C156.066193,200.117462 156.040268,200.041336 155.829269,200.136047 
	C155.422821,200.711594 155.227371,201.192459 155.031906,201.673309 
M140.658875,99.251846 
	C140.463455,99.570259 140.268036,99.888680 140.046829,100.058357 
	C140.046829,100.058357 140.197739,100.055183 139.555786,100.305191 
	C139.233078,100.631332 138.910355,100.957474 138.649185,101.925018 
	C133.761337,107.506218 128.806778,113.030739 124.004448,118.684570 
	C119.202782,124.337639 114.287621,129.925171 109.908295,135.897827 
	C105.052139,142.520798 100.693665,149.513077 96.216400,156.408127 
	C92.103104,162.742661 87.963188,169.069153 84.125420,175.570618 
	C80.577026,181.581863 77.413712,187.820419 73.518379,194.341675 
	C73.358620,194.763443 73.198853,195.185196 73.175003,195.811432 
	C73.175003,195.811432 73.010559,195.993759 72.524223,196.253647 
	C72.395615,196.591827 72.267006,196.930008 72.125755,197.074982 
	C72.125755,197.074982 72.316879,197.105820 71.662132,197.331268 
	C71.500725,197.966034 71.339317,198.600815 71.133423,199.084259 
	C71.133423,199.084259 71.291100,199.088120 70.650604,199.326660 
	C70.481270,199.954224 70.311943,200.581787 70.102905,201.066177 
	C70.102905,201.066177 70.251465,201.063965 69.629158,201.324677 
	C69.460815,201.947617 69.292465,202.570557 69.088051,203.057220 
	C69.088051,203.057220 69.228966,203.053345 68.612785,203.322006 
	C68.449471,203.944687 68.286148,204.567368 68.087738,205.057556 
	C68.087738,205.057556 68.224777,205.054642 67.609497,205.313232 
	C67.439667,205.931534 67.269836,206.549820 67.068420,207.047394 
	C67.068420,207.047394 67.193069,207.041336 66.593910,207.314041 
	C66.424828,207.926849 66.255745,208.539673 66.058044,209.041534 
	C66.058044,209.041534 66.172424,209.034760 65.575615,209.317581 
	C65.418938,209.936157 65.262268,210.554749 65.073601,211.049118 
	C65.073601,211.049118 65.201767,211.044296 64.597672,211.319336 
	C64.433258,211.937073 64.268852,212.554794 64.072563,213.048843 
	C64.072563,213.048843 64.200195,213.043808 63.589592,213.319153 
	C63.436584,213.944763 63.283573,214.570389 63.095284,215.059601 
	C63.095284,215.059601 63.236172,215.058731 62.615337,215.322220 
	C62.454578,215.948380 62.293823,216.574524 62.096611,217.060471 
	C62.096611,217.060471 62.241482,217.058945 61.616577,217.325714 
	C61.463005,217.956940 61.309433,218.588181 61.115749,219.071136 
	C61.115749,219.071136 61.269337,219.072617 60.633270,219.328842 
	C60.481972,219.963913 60.330673,220.598999 60.140671,221.079865 
	C60.140671,221.079865 60.299309,221.090363 59.648579,221.332520 
	C59.505394,221.972931 59.362209,222.613358 59.175709,223.099167 
	C59.175709,223.099167 59.335251,223.117142 58.680367,223.330872 
	C58.472046,223.951721 58.263725,224.572556 58.056145,225.621368 
	C58.056145,225.621368 57.907951,226.022842 57.574718,226.148529 
	C57.505470,226.243896 57.356846,226.388168 57.380383,226.426361 
	C57.497681,226.616684 57.660236,226.779129 57.694260,227.637039 
	C51.015400,242.328430 41.880131,256.205780 42.854694,273.514526 
	C43.518162,272.330627 44.181625,271.146759 45.432720,269.671692 
	C45.582485,269.054169 45.732254,268.436646 45.915092,267.943451 
	C45.915092,267.943451 45.786442,267.945221 46.399193,267.670868 
	C46.550510,267.045380 46.701824,266.419922 46.891212,265.929657 
	C46.891212,265.929657 46.750732,265.928040 47.371643,265.673859 
	C47.540257,265.054291 47.708874,264.434753 47.911457,263.940277 
	C47.911457,263.940277 47.781815,263.941437 48.390450,263.677551 
	C48.558811,263.062958 48.727177,262.448334 48.926411,261.947968 
	C48.926411,261.947968 48.808132,261.951172 49.413273,261.683502 
	C49.573822,261.066925 49.734367,260.450348 49.926517,259.948883 
	C49.926517,259.948883 49.807232,259.953033 50.407547,259.678070 
	C50.570126,259.063660 50.732700,258.449219 50.930614,257.952332 
	C50.930614,257.952332 50.808254,257.961975 51.430523,257.639740 
	C51.588177,256.980194 51.745834,256.320648 51.860432,255.295563 
	C51.860432,255.295563 52.057724,254.984863 52.517281,254.711578 
	C52.611107,254.374756 52.704933,254.037949 52.804230,253.876144 
	C52.804230,253.876144 52.639858,253.815781 53.325752,253.737900 
	C53.600132,252.505569 53.874516,251.273224 54.228912,249.329254 
	C59.463604,239.228104 64.708733,229.132339 69.929008,219.023743 
	C72.949234,213.175323 75.714836,207.183670 78.975769,201.473923 
	C84.448250,191.891846 90.158951,182.443359 95.892509,173.013519 
	C101.092873,164.460632 106.313866,155.913544 111.797531,147.541901 
	C115.783379,141.456909 120.038567,135.528214 124.480522,129.766403 
	C133.066391,118.629387 141.755966,107.567657 150.620834,96.651993 
	C156.671692,89.201347 163.092728,82.051353 169.348267,74.766937 
	C168.925186,74.335960 168.502121,73.904984 168.079056,73.474007 
	C162.742294,78.322067 157.405533,83.170120 151.395798,88.088120 
	C150.946533,88.757896 150.497269,89.427681 150.026154,90.024124 
	C150.026154,90.024124 150.102646,90.026245 149.610062,90.254936 
	C149.419708,90.555763 149.229340,90.856583 148.932709,91.602524 
	C148.766022,91.896996 148.513504,92.045906 147.475739,92.083649 
	C147.009094,92.769394 146.542450,93.455139 146.046539,94.044014 
	C146.046539,94.044014 146.147217,94.033943 145.633820,94.264503 
	C145.439880,94.577332 145.245941,94.890160 144.859589,95.756195 
	C144.000534,96.529221 143.141479,97.302254 141.717529,98.254898 
	C141.497543,98.570442 141.277542,98.885986 141.056366,99.049988 
	C141.056366,99.049988 141.206299,99.071960 140.658875,99.251846 
z"/>
<path fill="#2B11DF" opacity="1.000000" stroke="none" 
	d="
M47.617996,161.030807 
	C47.313286,165.573593 46.093708,170.287216 46.141891,174.987869 
	C46.232464,183.823898 47.055164,192.652420 47.296875,201.736206 
	C46.201626,193.532959 44.893028,185.086029 44.746983,176.619034 
	C44.658588,171.494019 46.371670,166.337936 47.617996,161.030807 
z"/>
<path fill="#2F18E1" opacity="1.000000" stroke="none" 
	d="
M212.027100,39.006985 
	C212.443771,36.131145 212.860428,33.255302 213.403015,29.510235 
	C207.708115,30.407352 202.689407,31.197950 197.235413,31.961739 
	C201.768005,30.617605 206.700775,29.109100 211.740616,28.183674 
	C212.520111,28.040541 214.498917,30.483530 214.670486,31.884022 
	C214.939255,34.077621 214.140106,36.402065 213.182266,38.845676 
	C212.389877,39.015839 212.208481,39.011414 212.027100,39.006985 
z"/>
<path fill="#2F16DF" opacity="1.000000" stroke="none" 
	d="
M93.040306,116.511208 
	C92.382812,115.734924 91.156090,114.523323 91.083748,113.246315 
	C90.832527,108.811813 91.123947,104.347191 90.892014,99.910599 
	C90.823029,98.590965 89.712616,97.325775 88.683456,96.005127 
	C89.193893,95.273933 90.100266,94.573257 91.936142,93.154022 
	C92.328178,101.587196 92.664253,108.816551 93.040306,116.511208 
z"/>
<path fill="#2F16DF" opacity="1.000000" stroke="none" 
	d="
M98.950752,91.386612 
	C98.743324,95.018463 98.615608,99.046097 97.904381,102.967903 
	C97.067513,107.582535 95.724648,112.105408 94.262756,116.825546 
	C95.540314,108.567200 97.156303,100.151382 98.950752,91.386612 
z"/>
<path fill="#2E14DF" opacity="1.000000" stroke="none" 
	d="
M157.410553,197.046356 
	C157.081406,195.633041 157.081406,194.011795 157.081406,191.728500 
	C151.759766,192.330414 146.597717,192.914261 141.199524,193.211700 
	C146.667572,191.773788 152.371780,190.622330 159.629822,189.157196 
	C158.750763,192.729599 158.245239,194.784012 157.410553,197.046356 
z"/>
<path fill="#2B11DF" opacity="1.000000" stroke="none" 
	d="
M205.396942,85.064102 
	C206.522263,77.357689 207.961319,69.436096 209.691040,61.261936 
	C208.557999,68.955887 207.134338,76.902405 205.396942,85.064102 
z"/>
<path fill="#290FDF" opacity="1.000000" stroke="none" 
	d="
M34.624283,197.022125 
	C33.565773,203.772095 32.171322,210.681229 30.442064,217.779831 
	C31.500954,211.039963 32.894646,204.110611 34.624283,197.022125 
z"/>
<path fill="#2B11E0" opacity="1.000000" stroke="none" 
	d="
M61.408913,283.024231 
	C67.447121,280.640472 73.881310,278.327148 80.714432,276.023621 
	C74.677216,278.387177 68.241058,280.740936 61.408913,283.024231 
z"/>
<path fill="#2F16DE" opacity="1.000000" stroke="none" 
	d="
M112.418945,257.099609 
	C111.062172,256.200562 110.132851,254.309982 108.978935,254.161179 
	C106.149750,253.796356 103.216988,254.234863 100.095833,254.052490 
	C103.506142,253.168427 107.145401,252.139221 110.787239,252.129990 
	C113.934532,252.121994 115.354546,253.963577 112.418945,257.099609 
z"/>
<path fill="#2A14E0" opacity="1.000000" stroke="none" 
	d="
M212.013275,39.432617 
	C212.208481,39.011414 212.389877,39.015839 212.843231,39.030151 
	C212.726883,43.419537 212.338547,47.799034 211.550934,52.589661 
	C210.770111,53.000679 210.388550,53.000568 210.006989,53.000458 
	C210.671127,48.619724 211.335281,44.238987 212.013275,39.432617 
z"/>
<path fill="#290FDF" opacity="1.000000" stroke="none" 
	d="
M30.050236,219.454681 
	C33.477432,221.320053 32.307247,224.060623 30.482105,226.906479 
	C30.071453,224.621277 30.033188,222.257904 30.050236,219.454681 
z"/>
<path fill="#2B11E0" opacity="1.000000" stroke="none" 
	d="
M52.399570,285.868042 
	C54.470978,284.886078 56.916653,283.945709 59.774887,283.030884 
	C57.716244,284.007477 55.245041,284.958557 52.399570,285.868042 
z"/>
<path fill="#290FDF" opacity="1.000000" stroke="none" 
	d="
M30.068356,230.442566 
	C30.740814,231.742874 31.360325,233.468704 31.672899,235.598419 
	C30.968700,236.002258 30.571436,236.002228 30.174171,236.002197 
	C30.121250,234.290817 30.068329,232.579453 30.068356,230.442566 
z"/>
<path fill="#2709DE" opacity="1.000000" stroke="none" 
	d="
M30.100487,236.391098 
	C30.571436,236.002228 30.968700,236.002258 31.663141,236.003937 
	C31.819492,237.848984 31.678665,239.692398 31.234943,241.783386 
	C30.630299,240.280640 30.328548,238.530319 30.100487,236.391098 
z"/>
<path fill="#2B11DF" opacity="1.000000" stroke="none" 
	d="
M210.002441,53.445972 
	C210.388550,53.000568 210.770111,53.000679 211.437897,52.999763 
	C211.383911,55.250523 211.043686,57.502308 210.373703,59.948952 
	C210.028580,58.059704 210.013229,55.975594 210.002441,53.445972 
z"/>
<path fill="#2F16DE" opacity="1.000000" stroke="none" 
	d="
M104.312157,263.863831 
	C104.590828,263.297699 105.160210,262.764618 106.056976,262.351074 
	C105.790520,262.946045 105.196693,263.421509 104.312157,263.863831 
z"/>
<path fill="#2F16DE" opacity="1.000000" stroke="none" 
	d="
M106.613373,262.403992 
	C106.709663,262.015900 107.100578,261.543976 107.840446,261.065521 
	C107.762260,261.479370 107.335129,261.899750 106.613373,262.403992 
z"/>
<path fill="#2B11DF" opacity="1.000000" stroke="none" 
	d="
M204.338654,88.000504 
	C204.177719,87.542412 204.315079,86.947906 204.713440,86.181435 
	C204.861969,86.627678 204.749466,87.245888 204.338654,88.000504 
z"/>
<path fill="#2E14DF" opacity="1.000000" stroke="none" 
	d="
M156.315491,199.935822 
	C156.192596,199.530914 156.319000,198.944382 156.698547,198.186966 
	C156.822723,198.595459 156.693741,199.174820 156.315491,199.935822 
z"/>
<path fill="#2E14DF" opacity="1.000000" stroke="none" 
	d="
M155.298157,201.613312 
	C155.227371,201.192459 155.422821,200.711594 155.869446,200.134033 
	C155.935211,200.542648 155.749817,201.047974 155.298157,201.613312 
z"/>
<path fill="#2F16DE" opacity="1.000000" stroke="none" 
	d="
M110.357956,259.124023 
	C110.303490,258.908295 110.521667,258.585205 111.027969,258.174377 
	C111.087585,258.396637 110.859093,258.706665 110.357956,259.124023 
z"/>
<path fill="#2F16DE" opacity="1.000000" stroke="none" 
	d="
M109.347382,260.163147 
	C109.279175,259.953705 109.472107,259.617432 109.947845,259.181335 
	C110.023285,259.399780 109.815903,259.718018 109.347382,260.163147 
z"/>
<path fill="#F9F7FE" opacity="1.000000" stroke="none" 
	d="
M142.282440,98.075287 
	C143.141479,97.302254 144.000534,96.529221 145.202942,95.351898 
	C145.746613,94.643044 145.946915,94.338493 146.147217,94.033943 
	C146.147217,94.033943 146.046539,94.044014 146.337906,93.967606 
	C147.144562,93.277214 147.659851,92.663231 148.175140,92.049240 
	C148.513504,92.045906 148.766022,91.896996 149.230347,91.262527 
	C149.719528,90.623764 149.911087,90.325005 150.102646,90.026245 
	C150.102646,90.026245 150.026154,90.024124 150.301849,89.927307 
	C151.074615,89.226387 151.571701,88.622284 152.068771,88.018173 
	C157.405533,83.170120 162.742294,78.322067 168.079056,73.474007 
	C168.502121,73.904984 168.925186,74.335960 169.348267,74.766937 
	C163.092728,82.051353 156.671692,89.201347 150.620834,96.651993 
	C141.755966,107.567657 133.066391,118.629387 124.480522,129.766403 
	C120.038567,135.528214 115.783379,141.456909 111.797531,147.541901 
	C106.313866,155.913544 101.092873,164.460632 95.892509,173.013519 
	C90.158951,182.443359 84.448250,191.891846 78.975769,201.473923 
	C75.714836,207.183670 72.949234,213.175323 69.929008,219.023743 
	C64.708733,229.132339 59.463604,239.228104 54.057705,250.000580 
	C53.470947,251.719864 53.055401,252.767822 52.639854,253.815781 
	C52.639858,253.815781 52.804230,253.876144 52.553444,253.910339 
	C52.221012,254.291306 52.139366,254.638092 52.057724,254.984863 
	C52.057724,254.984863 51.860432,255.295563 51.611317,255.674438 
	C51.177551,256.689545 50.992901,257.325745 50.808254,257.961975 
	C50.808254,257.961975 50.930614,257.952332 50.644157,258.057983 
	C50.174210,258.760132 49.990723,259.356567 49.807236,259.953033 
	C49.807232,259.953033 49.926517,259.948883 49.642994,260.056915 
	C49.175694,260.760345 48.991917,261.355774 48.808136,261.951172 
	C48.808132,261.951172 48.926411,261.947968 48.645275,262.058228 
	C48.170033,262.759460 47.975922,263.350433 47.781815,263.941437 
	C47.781815,263.941437 47.911457,263.940277 47.627762,264.044983 
	C47.146286,264.742462 46.948509,265.335236 46.750732,265.928040 
	C46.750732,265.928040 46.891212,265.929657 46.603668,266.030853 
	C46.139565,266.736450 45.963001,267.340820 45.786438,267.945221 
	C45.786442,267.945221 45.915092,267.943451 45.631081,268.050232 
	C45.179741,268.758972 45.012413,269.360931 44.845093,269.962860 
	C44.181625,271.146759 43.518162,272.330627 42.854694,273.514526 
	C41.880131,256.205780 51.015400,242.328430 57.842049,227.069275 
	C57.989834,226.501511 57.907951,226.022842 57.907951,226.022842 
	C57.907951,226.022842 58.056145,225.621368 58.339779,225.254456 
	C58.860695,224.297394 59.097973,223.707275 59.335251,223.117142 
	C59.335251,223.117142 59.175709,223.099167 59.465393,223.006134 
	C59.936489,222.305511 60.117901,221.697937 60.299309,221.090363 
	C60.299309,221.090363 60.140671,221.079865 60.429459,220.987244 
	C60.901939,220.287277 61.085640,219.679947 61.269341,219.072617 
	C61.269337,219.072617 61.115749,219.071136 61.407310,218.977539 
	C61.879738,218.275604 62.060608,217.667282 62.241478,217.058945 
	C62.241482,217.058945 62.096611,217.060471 62.384521,216.962845 
	C62.860344,216.263062 63.048256,215.660889 63.236168,215.058731 
	C63.236172,215.058731 63.095284,215.059601 63.379944,214.956985 
	C63.843136,214.250854 64.021667,213.647324 64.200195,213.043808 
	C64.200195,213.043808 64.072563,213.048843 64.357605,212.944397 
	C64.829018,212.241394 65.015388,211.642838 65.201767,211.044296 
	C65.201767,211.044296 65.073601,211.049118 65.357224,210.942932 
	C65.818039,210.236084 65.995232,209.635422 66.172424,209.034760 
	C66.172424,209.034760 66.058044,209.041534 66.337723,208.929108 
	C66.809288,208.224884 67.001183,207.633118 67.193069,207.041336 
	C67.193069,207.041336 67.068420,207.047394 67.353348,206.942902 
	C67.833778,206.243805 68.029282,205.649231 68.224777,205.054642 
	C68.224777,205.054642 68.087738,205.057556 68.376869,204.958725 
	C68.853653,204.257706 69.041313,203.655533 69.228973,203.053345 
	C69.228966,203.053345 69.088051,203.057220 69.379456,202.962631 
	C69.864395,202.266678 70.057922,201.665314 70.251465,201.063965 
	C70.251465,201.063965 70.102905,201.066177 70.394882,200.974304 
	C70.888268,200.284332 71.089691,199.686218 71.291107,199.088120 
	C71.291100,199.088120 71.133423,199.084259 71.426697,198.994873 
	C71.918938,198.305588 72.117905,197.705704 72.316879,197.105820 
	C72.316879,197.105820 72.125755,197.074982 72.392349,197.058350 
	C72.776154,196.692383 72.893356,196.343079 73.010559,195.993759 
	C73.010559,195.993759 73.175003,195.811432 73.394363,195.521011 
	C73.769417,194.806686 73.925117,194.382782 74.080811,193.958862 
	C77.413712,187.820419 80.577026,181.581863 84.125420,175.570618 
	C87.963188,169.069153 92.103104,162.742661 96.216400,156.408127 
	C100.693665,149.513077 105.052139,142.520798 109.908295,135.897827 
	C114.287621,129.925171 119.202782,124.337639 124.004448,118.684570 
	C128.806778,113.030739 133.761337,107.506218 138.995361,101.570435 
	C139.626938,100.828964 139.912338,100.442070 140.197739,100.055183 
	C140.197739,100.055183 140.046829,100.058357 140.323090,100.028038 
	C140.801666,99.689133 141.003983,99.380547 141.206299,99.071960 
	C141.206299,99.071960 141.056366,99.049988 141.328979,99.022537 
	C141.828552,98.688492 142.055496,98.381889 142.282440,98.075287 
z"/>
<path fill="#2A12DE" opacity="1.000000" stroke="none" 
	d="
M52.982803,253.776840 
	C53.055401,252.767822 53.470947,251.719864 54.017696,250.356415 
	C53.874516,251.273224 53.600132,252.505569 52.982803,253.776840 
z"/>
<path fill="#290FE1" opacity="1.000000" stroke="none" 
	d="
M147.825439,92.066444 
	C147.659851,92.663231 147.144562,93.277214 146.352539,94.016037 
	C146.542450,93.455139 147.009094,92.769394 147.825439,92.066444 
z"/>
<path fill="#290FE1" opacity="1.000000" stroke="none" 
	d="
M151.732285,88.053146 
	C151.571701,88.622284 151.074615,89.226387 150.312775,89.963974 
	C150.497269,89.427681 150.946533,88.757896 151.732285,88.053146 
z"/>
<path fill="#2A12DE" opacity="1.000000" stroke="none" 
	d="
M48.086128,263.809509 
	C47.975922,263.350433 48.170033,262.759460 48.629837,262.001099 
	C48.727177,262.448334 48.558811,263.062958 48.086128,263.809509 
z"/>
<path fill="#2A12DE" opacity="1.000000" stroke="none" 
	d="
M49.110703,261.817322 
	C48.991917,261.355774 49.175694,260.760345 49.627190,259.999359 
	C49.734367,260.450348 49.573822,261.066925 49.110703,261.817322 
z"/>
<path fill="#2A12DE" opacity="1.000000" stroke="none" 
	d="
M50.107391,259.815552 
	C49.990723,259.356567 50.174210,258.760132 50.626488,257.999237 
	C50.732700,258.449219 50.570126,259.063660 50.107391,259.815552 
z"/>
<path fill="#2A12DE" opacity="1.000000" stroke="none" 
	d="
M51.119389,257.800842 
	C50.992901,257.325745 51.177551,256.689545 51.632843,255.857208 
	C51.745834,256.320648 51.588177,256.980194 51.119389,257.800842 
z"/>
<path fill="#2A12DE" opacity="1.000000" stroke="none" 
	d="
M47.061188,265.800964 
	C46.948509,265.335236 47.146286,264.742462 47.610779,263.982422 
	C47.708874,264.434753 47.540257,265.054291 47.061188,265.800964 
z"/>
<path fill="#2A12DE" opacity="1.000000" stroke="none" 
	d="
M46.092812,267.808044 
	C45.963001,267.340820 46.139565,266.736450 46.584633,265.963257 
	C46.701824,266.419922 46.550510,267.045380 46.092812,267.808044 
z"/>
<path fill="#2A12DE" opacity="1.000000" stroke="none" 
	d="
M45.138905,269.817261 
	C45.012413,269.360931 45.179741,268.758972 45.614544,267.988098 
	C45.732254,268.436646 45.582485,269.054169 45.138905,269.817261 
z"/>
<path fill="#260CDF" opacity="1.000000" stroke="none" 
	d="
M59.007812,223.223999 
	C59.097973,223.707275 58.860695,224.297394 58.339409,225.040466 
	C58.263725,224.572556 58.472046,223.951721 59.007812,223.223999 
z"/>
<path fill="#260CDF" opacity="1.000000" stroke="none" 
	d="
M60.951305,219.200729 
	C61.085640,219.679947 60.901939,220.287277 60.448807,221.064331 
	C60.330673,220.598999 60.481972,219.963913 60.951305,219.200729 
z"/>
<path fill="#260CDF" opacity="1.000000" stroke="none" 
	d="
M59.973946,221.211441 
	C60.117901,221.697937 59.936489,222.305511 59.487049,223.083435 
	C59.362209,222.613358 59.505394,221.972931 59.973946,221.211441 
z"/>
<path fill="#260CDF" opacity="1.000000" stroke="none" 
	d="
M62.925751,215.190475 
	C63.048256,215.660889 62.860344,216.263062 62.402748,217.032959 
	C62.293823,216.574524 62.454578,215.948380 62.925751,215.190475 
z"/>
<path fill="#260CDF" opacity="1.000000" stroke="none" 
	d="
M71.989502,197.218536 
	C72.117905,197.705704 71.918938,198.305588 71.448936,199.070526 
	C71.339317,198.600815 71.500725,197.966034 71.989502,197.218536 
z"/>
<path fill="#260CDF" opacity="1.000000" stroke="none" 
	d="
M70.970856,199.207397 
	C71.089691,199.686218 70.888268,200.284332 70.414734,201.045898 
	C70.311943,200.581787 70.481270,199.954224 70.970856,199.207397 
z"/>
<path fill="#260CDF" opacity="1.000000" stroke="none" 
	d="
M69.940308,201.194321 
	C70.057922,201.665314 69.864395,202.266678 69.397491,203.030762 
	C69.292465,202.570557 69.460815,201.947617 69.940308,201.194321 
z"/>
<path fill="#260CDF" opacity="1.000000" stroke="none" 
	d="
M68.920883,203.187683 
	C69.041313,203.655533 68.853653,204.257706 68.394409,205.024963 
	C68.286148,204.567368 68.449471,203.944687 68.920883,203.187683 
z"/>
<path fill="#260CDF" opacity="1.000000" stroke="none" 
	d="
M67.917145,205.183929 
	C68.029282,205.649231 67.833778,206.243805 67.369141,207.003265 
	C67.269836,206.549820 67.439667,205.931534 67.917145,205.183929 
z"/>
<path fill="#260CDF" opacity="1.000000" stroke="none" 
	d="
M66.893494,207.177689 
	C67.001183,207.633118 66.809288,208.224884 66.352036,208.984573 
	C66.255745,208.539673 66.424828,207.926849 66.893494,207.177689 
z"/>
<path fill="#260CDF" opacity="1.000000" stroke="none" 
	d="
M65.874023,209.176178 
	C65.995232,209.635422 65.818039,210.236084 65.373215,211.005035 
	C65.262268,210.554749 65.418938,209.936157 65.874023,209.176178 
z"/>
<path fill="#260CDF" opacity="1.000000" stroke="none" 
	d="
M64.899719,211.181824 
	C65.015388,211.642838 64.829018,212.241394 64.373550,213.006226 
	C64.268852,212.554794 64.433258,211.937073 64.899719,211.181824 
z"/>
<path fill="#260CDF" opacity="1.000000" stroke="none" 
	d="
M63.894894,213.181488 
	C64.021667,213.647324 63.843136,214.250854 63.397587,215.025177 
	C63.283573,214.570389 63.436584,213.944763 63.894894,213.181488 
z"/>
<path fill="#260CDF" opacity="1.000000" stroke="none" 
	d="
M61.929028,217.192322 
	C62.060608,217.667282 61.879738,218.275604 61.427364,219.051666 
	C61.309433,218.588181 61.463005,217.956940 61.929028,217.192322 
z"/>
<path fill="#290FE1" opacity="1.000000" stroke="none" 
	d="
M149.856354,90.140594 
	C149.911087,90.325005 149.719528,90.623764 149.283478,91.039963 
	C149.229340,90.856583 149.419708,90.555763 149.856354,90.140594 
z"/>
<path fill="#2A12DE" opacity="1.000000" stroke="none" 
	d="
M52.287498,254.848221 
	C52.139366,254.638092 52.221012,254.291306 52.550709,253.822830 
	C52.704933,254.037949 52.611107,254.374756 52.287498,254.848221 
z"/>
<path fill="#260CDF" opacity="1.000000" stroke="none" 
	d="
M57.741333,226.085693 
	C57.907951,226.022842 57.989834,226.501511 57.898350,226.726440 
	C57.660236,226.779129 57.497681,226.616684 57.380383,226.426361 
	C57.356846,226.388168 57.505470,226.243896 57.741333,226.085693 
z"/>
<path fill="#290FE1" opacity="1.000000" stroke="none" 
	d="
M139.876770,100.180191 
	C139.912338,100.442070 139.626938,100.828964 138.964584,101.249741 
	C138.910355,100.957474 139.233078,100.631332 139.876770,100.180191 
z"/>
<path fill="#290FE1" opacity="1.000000" stroke="none" 
	d="
M145.890518,94.149223 
	C145.946915,94.338493 145.746613,94.643044 145.299164,95.075294 
	C145.245941,94.890160 145.439880,94.577332 145.890518,94.149223 
z"/>
<path fill="#260CDF" opacity="1.000000" stroke="none" 
	d="
M72.767395,196.123703 
	C72.893356,196.343079 72.776154,196.692383 72.398666,197.154938 
	C72.267006,196.930008 72.395615,196.591827 72.767395,196.123703 
z"/>
<path fill="#260CDF" opacity="1.000000" stroke="none" 
	d="
M73.799591,194.150269 
	C73.925117,194.382782 73.769417,194.806686 73.326401,195.418762 
	C73.198853,195.185196 73.358620,194.763443 73.799591,194.150269 
z"/>
<path fill="#290FE1" opacity="1.000000" stroke="none" 
	d="
M141.999985,98.165092 
	C142.055496,98.381889 141.828552,98.688492 141.329559,99.098312 
	C141.277542,98.885986 141.497543,98.570442 141.999985,98.165092 
z"/>
<path fill="#290FE1" opacity="1.000000" stroke="none" 
	d="
M140.932587,99.161903 
	C141.003983,99.380547 140.801666,99.689133 140.335999,100.102409 
	C140.268036,99.888680 140.463455,99.570259 140.932587,99.161903 
z"/>
</svg>